<svg xmlns="http://www.w3.org/2000/svg" width="100" height="100" viewBox="0 0 100 18"><path d="M27.52 10.57c-.079-.195-.118-.468-.118-.82 0-.348.125-1.383.368-3.102.246-1.714.367-3.09.367-4.128 0-.247-.02-.579-.055-1.004.633.035 1.027.18 1.188.437.082.149.136.293.16.426a4.1 4.1 0 01.035.637c0 .285-.133 1.367-.399 3.25-.277 1.882-.414 3.222-.421 4.027a.934.934 0 01.222-.02c1.805 0 3.149-.12 4.028-.363-.06.469-.223.836-.493 1.098-.273.262-.613.39-1.015.39-.121 0-.48-.027-1.082-.078a21.065 21.065 0 00-1.758-.078c-.567 0-1.133.051-1.707.156.113-.359.34-.636.68-.828zm8.222-4.043a5.726 5.726 0 00-.55 1.254c-.133.426-.2.836-.2 1.23 0 .387.09.72.27.993.18.273.433.41.765.41.473 0 .91-.25 1.313-.75.414-.504.726-1.113.95-1.82.218-.715.327-1.375.327-1.98a12.9 12.9 0 00-.07-1.489c.195-.02.32-.027.375-.027.707 0 1.062.355 1.062 1.062 0 .152-.101.781-.304 1.883-.196 1.105-.293 1.988-.293 2.648 0 .664.129 1.25.383 1.762-.524-.105-.903-.332-1.141-.68-.238-.343-.36-.84-.36-1.488 0-.117.02-.34.055-.664-.226.774-.62 1.395-1.187 1.867-.57.473-1.13.711-1.672.711-.547 0-.988-.203-1.32-.61-.333-.398-.5-.952-.5-1.663 0-.715.136-1.41.41-2.09.27-.68.675-1.266 1.222-1.762.543-.5 1.153-.75 1.832-.75.293 0 .614.059.965.176a3.495 3.495 0 00-1.36.672 4.123 4.123 0 00-.972 1.105zm12.582-3.703l.008.149c0 .308-.117 1.316-.355 3.03-.239 1.708-.36 3.138-.36 4.29 0 .512.028.906.082 1.191-.203.02-.312.028-.332.028-.375 0-.652-.082-.836-.254-.18-.168-.27-.442-.27-.817 0-.379.141-1.535.419-3.468.277-1.93.414-3.309.414-4.133 0-.824-.059-1.363-.172-1.621.27.035.516.136.742.304.23.165.402.387.516.665.636-.333 1.347-.497 2.125-.497.777 0 1.386.23 1.832.696.445.472.668 1.047.668 1.726 0 .871-.325 1.657-.973 2.352-.648.691-1.523 1.039-2.625 1.039-.25 0-.477-.016-.687-.043l-.036-.395c.559 0 1.047-.082 1.465-.242.418-.164.73-.379.946-.644a2.813 2.813 0 00.636-1.832c0-.504-.164-.926-.492-1.262-.328-.34-.805-.508-1.43-.508-.375 0-.804.082-1.285.246zm7.25 3.703c-.242.407-.43.825-.562 1.254a4.363 4.363 0 00-.188 1.23c0 .387.09.72.27.993.176.273.433.41.765.41.465 0 .903-.25 1.313-.75.406-.504.719-1.113.937-1.82.227-.715.34-1.375.34-1.98 0-.602-.027-1.098-.078-1.489.2-.02.324-.027.375-.027.707 0 1.063.355 1.063 1.062 0 .152-.102.781-.297 1.883-.203 1.105-.305 1.988-.305 2.648 0 .664.129 1.25.387 1.762-.524-.105-.907-.332-1.145-.68-.238-.343-.355-.84-.355-1.488 0-.117.015-.34.05-.664-.226.774-.62 1.395-1.187 1.867-.562.473-1.121.711-1.668.711-.547 0-.988-.203-1.32-.61-.336-.398-.5-.952-.5-1.663 0-.715.136-1.41.41-2.09a4.629 4.629 0 011.223-1.762c.546-.5 1.156-.75 1.832-.75.289 0 .609.059.96.176a3.422 3.422 0 00-1.347.672 3.87 3.87 0 00-.973 1.105zm11.957-.53c0 .37-.082 1.03-.242 1.976-.16.949-.242 1.64-.242 2.074 0 .43.055.742.16.933.11.192.293.356.555.489a4.848 4.848 0 01-.465.015c-.563 0-.965-.101-1.203-.312-.239-.207-.36-.582-.36-1.113 0-.305.086-.91.25-1.825.168-.918.25-1.59.25-2.02 0-.534-.164-.804-.5-.804-.535 0-1.09.461-1.66 1.38-.57.917-.855 2.022-.855 3.32 0 .511.027.91.078 1.195a9.3 9.3 0 01-.39.023c-.735 0-1.098-.351-1.098-1.055 0-.16.086-.785.265-1.87.172-1.094.258-1.962.258-2.606 0-.652-.07-1.246-.21-1.79.491.188.835.45 1.034.794.196.347.293.746.293 1.187 0 .442-.05.953-.152 1.543.273-.918.707-1.691 1.297-2.32.582-.633 1.129-.95 1.64-.95.864 0 1.297.579 1.297 1.735zm5.992-1.38c0 .34-.066.574-.199.707-.136.13-.332.192-.59.192h-.898c-.04.214-.125.722-.262 1.515-.285 1.512-.43 2.653-.43 3.426 0 .773.063 1.29.18 1.543-.476-.176-.816-.434-1.015-.777-.2-.348-.297-.77-.297-1.262 0-.5.031-.969.09-1.41.066-.442.156-.961.27-1.555.116-.598.198-1.074.25-1.426a5.183 5.183 0 00-1.403.39 4.213 4.213 0 01-.02-.358c0-.387.133-.649.395-.782.265-.133.652-.203 1.152-.203a15.19 15.19 0 00.086-1.347c0-.297 0-.536-.008-.715v-.403c.383.059.676.223.887.496.207.27.312.641.312 1.118 0 .242-.023.539-.062.886.723 0 1.234-.117 1.535-.355.016.117.027.223.027.32zm2.348 2.914c.274-.918.695-1.691 1.266-2.32.574-.633 1.11-.95 1.61-.95s.85.15 1.062.446c.207.297.312.7.312 1.211 0 .504-.082 1.215-.242 2.133-.16.926-.242 1.597-.242 2.015 0 .418.054.723.16.914.11.192.289.356.547.489-.11.011-.258.015-.457.015-.535 0-.93-.105-1.188-.32-.25-.215-.375-.586-.375-1.105 0-.305.086-.91.25-1.825.168-.918.25-1.59.25-2.02 0-.534-.191-.804-.578-.804-.226 0-.476.117-.75.352-.273.226-.539.535-.797.93-.25.394-.46.898-.633 1.507a6.517 6.517 0 00-.257 1.79c0 .59.027 1.03.078 1.316-.203.015-.317.023-.34.023-.39 0-.68-.082-.863-.242-.192-.164-.286-.418-.286-.77 0-.34.075-1.007.223-1.992.438-3.027.66-5.328.66-6.894 0-.711-.047-1.188-.144-1.43.484.176.824.426 1.02.758.195.336.292.797.292 1.379 0 .406-.082 1.258-.25 2.558-.16 1.305-.27 2.246-.328 2.836zm9.453-2.633c-.5 0-.922.278-1.265.836-.352.563-.586 1.223-.7 1.977h.352c.437 0 .824-.059 1.148-.18.325-.125.575-.281.75-.472.336-.38.5-.801.5-1.274 0-.265-.062-.48-.195-.644-.129-.16-.328-.243-.59-.243zm1.762 4.942c-.383.61-.8 1.035-1.262 1.281-.457.242-.988.363-1.597.363-.602 0-1.13-.261-1.579-.78-.453-.52-.68-1.25-.68-2.2 0-1.074.298-2.031.891-2.875a3.364 3.364 0 011.145-.992c.469-.25.988-.375 1.555-.375 1.25 0 1.875.59 1.875 1.77 0 .706-.282 1.261-.84 1.663-.567.403-1.219.602-1.957.602a5.97 5.97 0 01-1.328-.133 4.342 4.342 0 00-.012.375c0 1.441.437 2.164 1.312 2.164.825 0 1.493-.398 2.012-1.195.309.039.465.152.465.332zm-.25-6.492a.386.386 0 01-.137.25.517.517 0 01-.265.148 6.592 6.592 0 00-1.153-1.078 4.376 4.376 0 00-1.437-.758c.015-.426.219-.762.605-1.004.442.168.899.504 1.367 1.012.47.5.809.977 1.02 1.43zm3.687 3.988c.297-1.055.657-1.836 1.079-2.332.421-.5.816-.75 1.18-.75.363 0 .632.129.812.39.183.27.277.606.277 1.012 0 .407-.11.758-.32 1.055-.223.297-.54.445-.957.445-.133 0-.235-.011-.313-.027.285-.402.43-.809.43-1.219 0-.293-.125-.437-.367-.437-.192 0-.395.109-.606.324-.222.219-.43.523-.625.914-.203.394-.37.902-.5 1.523a9.296 9.296 0 00-.207 2.032c0 .082.02.425.063 1.039-.215.015-.34.023-.375.023-.73 0-1.098-.351-1.098-1.055 0-.16.09-.785.266-1.87.175-1.094.261-1.962.261-2.606 0-.652-.074-1.246-.214-1.79.492.188.84.45 1.035.794.195.347.293.754.293 1.21 0 .462-.04.903-.114 1.325zm7.364-2.438c-.5 0-.926.278-1.274.836-.347.563-.574 1.223-.687 1.977h.347c.438 0 .825-.059 1.153-.18.32-.125.57-.281.75-.472.332-.38.5-.801.5-1.274 0-.265-.067-.48-.2-.644-.128-.16-.324-.243-.59-.243zm1.761 4.942c-.382.61-.8 1.035-1.261 1.281-.457.242-.989.363-1.598.363-.602 0-1.125-.261-1.578-.78-.453-.52-.68-1.25-.68-2.2 0-1.074.297-2.031.895-2.875a3.266 3.266 0 012.695-1.367c1.25 0 1.875.59 1.875 1.77 0 .706-.281 1.261-.84 1.663-.566.403-1.219.602-1.957.602a5.97 5.97 0 01-1.328-.133c-.008.082-.008.207-.008.375 0 1.441.438 2.164 1.313 2.164.82 0 1.488-.398 2.008-1.195.308.039.464.152.464.332zm0 0"/><path d="M10.016 8.21v-.019a1.412 1.412 0 00-.871-.656h-.036a3.05 3.05 0 00-.62-.113 3.92 3.92 0 01-1.594-.578.194.194 0 00-.25.054.177.177 0 00.043.247c.156.101.324.19.492.27 0 .022-.02.046-.028.073-.226.782.23 1.59 1.028 1.817.144.043.293.062.441.062.457.004.887-.203 1.164-.55.024.242.008.484-.043.726a.17.17 0 00.004.145c.02.046.063.082.11.093a.168.168 0 00.062 0 .186.186 0 00.176-.12c.078-.325.097-.661.054-.993a1.166 1.166 0 00-.132-.457zm-1.11-.362a.24.24 0 010 .129.326.326 0 01-.402.218.313.313 0 01-.223-.39.144.144 0 01.02-.043l.152.015c.152.012.309.04.461.075zm.235 1.03a1.2 1.2 0 01-.864.079A1.11 1.11 0 017.5 7.582v-.027c.137.05.277.097.422.133v.015a.66.66 0 00.18.692c.187.18.464.238.714.148.25-.086.426-.3.457-.559a.969.969 0 01.368.32c-.086.247-.262.45-.496.575zm6.718-1.394c0-.027-.02-.05-.027-.074.172-.082.336-.168.496-.27a.176.176 0 00.04-.245.186.186 0 00-.25-.055c-.481.305-1.024.5-1.595.578-.21.012-.421.05-.625.113h-.027a1.399 1.399 0 00-.879.66v.016a1.098 1.098 0 00-.133.469c-.043.332-.023.668.055.992a.19.19 0 00.176.125.195.195 0 00.156-.074.185.185 0 00.024-.168 2.522 2.522 0 01-.047-.727c.277.352.707.555 1.164.551.148 0 .297-.02.441-.059.387-.109.711-.363.906-.707.196-.343.239-.75.125-1.125zm-1.312.293l.148-.015a.426.426 0 01.024.043.316.316 0 01-.223.386.316.316 0 01-.297-.062.3.3 0 01-.105-.281c.148-.035.3-.059.457-.07zm.18 1.18a1.203 1.203 0 01-.864-.078 1.061 1.061 0 01-.496-.578.993.993 0 01.367-.317.69.69 0 001.227.305.661.661 0 00.117-.582v-.012c.14-.039.281-.082.422-.133v.028a1.11 1.11 0 01-.773 1.367zm0 0" fill="#1d1d1b"/><path d="M10.594 7.926c-.04-.547-.496-.89-1.278-.95a2.909 2.909 0 01-1.16-.41.191.191 0 00-.258.051.175.175 0 00.051.25c.406.254.864.414 1.34.469.336.023.902.137.934.613.007.094.09.168.187.168h.012a.182.182 0 00.172-.191zm3.219-.59a3.219 3.219 0 001.34-.469.175.175 0 00.05-.25.19.19 0 00-.258-.05c-.351.218-.75.363-1.164.417-.77.055-1.238.403-1.277.946 0 .05.016.097.047.133.031.039.078.058.129.062h.011c.098 0 .18-.074.188-.168.035-.488.61-.594.934-.621zM7.694 6.074c.04.055.11.078.176.07a.184.184 0 00.113-.3l-.793-.946a.186.186 0 00-.32.047.176.176 0 00.031.18zm.832-.523c.028.07.098.117.176.117a.2.2 0 00.149-.078.178.178 0 00.023-.164l-.348-.89a.19.19 0 00-.242-.106.176.176 0 00-.105.234zm.993.027c.097 0 .18-.074.187-.168l.063-.77a.165.165 0 00-.047-.132.177.177 0 00-.125-.063.181.181 0 00-.203.164l-.06.774a.174.174 0 00.048.137.199.199 0 00.137.058zm0 0" fill="#1d1d1b"/><path d="M22.738 11.824c-.965-.3-3.242-.273-5.09-.191 1.239-1.528 1.239-3.004 1.016-3.7-.168-.519-.426-1.831-.094-2.343a.378.378 0 01.293-.184c.434-.058.516-.5.578-.851.016-.13.043-.254.086-.375a1.06 1.06 0 01.301-.332c.348-.27.621-.621.79-1.024.394-.945-.134-1.414-.157-1.433a.193.193 0 00-.07-.032h-.036a1.571 1.571 0 00-1.19.176c-.169.082-.376.18-.685.305a1.74 1.74 0 01-1.984-.32C15.38.473 14.594.172 11.516.172c-3.079 0-3.852.305-4.957 1.348a1.742 1.742 0 01-1.985.32c-.234-.094-.46-.195-.687-.305a1.569 1.569 0 00-1.192-.176H2.66c-.023.008-.047.016-.07.032-.02.02-.55.484-.156 1.433.171.403.441.754.789 1.024.125.09.23.203.304.332.024.125.04.254.043.383.059.355.137.796.575.851a.373.373 0 01.293.188c.332.511.074 1.82-.094 2.343-.227.692-.219 2.176 1.02 3.696-1.852-.082-4.13-.11-5.094.191a.18.18 0 00-.122.23.188.188 0 00.235.118c1.012-.317 3.719-.242 5.25-.16h.062l.16.168c-1.902.027-3.195.152-3.843.382a.18.18 0 00-.121.137.178.178 0 00.062.176.2.2 0 00.188.027c.64-.226 2.058-.351 4.105-.367.086.074.176.145.266.215-1.606.086-4.215.293-5.207.726a.179.179 0 00-.082.235c.039.086.14.129.23.097 1.035-.445 4.012-.64 5.512-.714l.246.175.023.016c-1.558.148-2.625.34-3.171.57a.185.185 0 00-.083.235.19.19 0 00.235.097c.512-.218 1.598-.41 3.152-.55-.008.445.051.894.168 1.324.406 1.047.957 1.304 1.602 1.355.093.172.222.32.379.438a3.69 3.69 0 00-.84 1.082c-.04.093.008.199.105.234a.187.187 0 00.242-.101c.067-.172.266-.485.813-1.016.16.078.328.144.496.191a2.775 2.775 0 00-.227.828.185.185 0 00.047.133.198.198 0 00.13.059c.097 0 .179-.074.187-.172a2.5 2.5 0 01.222-.766c.54.086 1.086.086 1.625 0 .114.243.192.5.223.766.008.098.09.172.188.172a.198.198 0 00.128-.059.185.185 0 00.047-.133 2.703 2.703 0 00-.218-.832c.168-.046.336-.109.496-.187.547.527.742.844.812 1.012a.19.19 0 00.242.105.176.176 0 00.106-.234 3.591 3.591 0 00-.84-1.082c.156-.121.285-.27.379-.438.644-.054 1.195-.308 1.598-1.355.117-.43.171-.875.16-1.317 1.554.141 2.644.328 3.156.551a.187.187 0 00.191-.012.172.172 0 00.078-.171.177.177 0 00-.12-.149c-.551-.242-1.637-.43-3.223-.574l.273-.192c1.488.075 4.512.27 5.559.727a.19.19 0 00.234-.098.183.183 0 00-.086-.234c-1.004-.43-3.62-.633-5.222-.727.093-.066.183-.14.273-.21 2.055.011 3.473.136 4.117.363a.183.183 0 00.23-.11.178.178 0 00-.105-.23c-.644-.227-1.937-.356-3.844-.383l.16-.168h.063c1.524-.074 4.238-.152 5.254.16a.198.198 0 00.246-.129c.035-.101-.027-.21-.133-.242zm-10.414 4.574a.192.192 0 00-.254-.066.178.178 0 00-.066.25c.039.066.094.168.156.29-.43.062-.863.062-1.293 0 .086-.173.156-.286.156-.29a.178.178 0 00-.066-.25.192.192 0 00-.254.066c0 .016-.105.18-.215.403a1.742 1.742 0 01-.89-.485h.605c.543 0 1.043-.293 1.3-.757.263.468.767.757 1.313.757h.602c-.238.243-.547.41-.887.485-.113-.219-.207-.38-.215-.395zm4.242-4.175l-.02.015c-.21.168-.44.332-.663.485h-.195c.03-.414.113-.79.265-.899a.179.179 0 00.031-.258.191.191 0 00-.265-.035c-.246.203-.356.64-.403 1.172h-.152a.18.18 0 00-.191.176.183.183 0 00.18.187h.14v.18h-.043a.187.187 0 00-.203.164.183.183 0 00.168.195h.055c.007.41-.04.82-.141 1.223-.348.906-.77 1.098-1.375 1.125h-.938c-.613 0-1.113-.48-1.125-1.078.086-.078.184-.148.29-.203.246-.156.613-.367.476-.676-.047-.105-.012-.156.414-.441l.156-.102a.604.604 0 00.32-.484.496.496 0 00-.234-.387.184.184 0 00-.246.05.18.18 0 00.051.243c.02.016.062.059.066.09.004.035-.043.101-.164.183l-.152.102c-.406.27-.723.484-.547.867-.02.059-.219.176-.328.242a2.672 2.672 0 00-.281.184 2.672 2.672 0 00-.282-.184 2.129 2.129 0 01-.328-.226c.176-.406-.144-.613-.547-.883l-.152-.105c-.121-.082-.164-.149-.164-.18 0-.035.043-.078.063-.09a.181.181 0 00.05-.246.187.187 0 00-.25-.059.496.496 0 00-.234.387.604.604 0 00.32.484l.157.102c.43.285.46.336.414.441-.137.309.218.52.476.676.102.055.195.117.29.188-.005.605-.509 1.093-1.13 1.093H9.81c-.922.02-1.485.032-1.926-1.129a4.61 4.61 0 01-.14-1.222h.05a.183.183 0 00.172-.195.19.19 0 00-.203-.168h-.035v-.18h.14a.18.18 0 00.184-.18.183.183 0 00-.184-.183h-.152c-.047-.528-.145-.965-.406-1.168a.205.205 0 00-.286.03.195.195 0 00.032.278c.152.117.226.485.261.899h-.234a9.56 9.56 0 01-.613-.485c-.012-.015-.024-.023-.04-.035-.062-.055-.128-.11-.187-.168l.578.04h.016a.184.184 0 00.191-.177.18.18 0 00-.18-.187s-.386-.031-.992-.063C4.508 10.152 4.473 8.695 4.687 8.04c0-.02.579-1.844.055-2.644a.751.751 0 00-.543-.348c-.156-.02-.203-.242-.25-.555-.02-.152-.054-.3-.11-.445a1.303 1.303 0 00-.401-.473 2.195 2.195 0 01-.692-.886c-.246-.57-.055-.887.027-.989a.812.812 0 01.512.13c.02.015 1.867 1.335 2.676 1.335h.086c-.742.523-1.18 1.188-1.18 1.84 0 .098.082.18.188.18a.183.183 0 00.183-.18c0-.68.645-1.426 1.645-1.902.39-.059.765-.18 1.113-.364a.174.174 0 00.098-.156.195.195 0 00-.09-.16.207.207 0 00-.191 0 3.881 3.881 0 01-1.875.383c-.31 0-.903-.293-1.454-.618a2.101 2.101 0 002.309-.417C7.785.844 8.403.523 11.503.523c3.102 0 3.72.325 4.712 1.247.379.375.894.59 1.433.593.29-.004.579-.062.852-.164-.547.32-1.14.61-1.45.61a3.924 3.924 0 01-1.874-.38.188.188 0 00-.25.071.185.185 0 00.07.246c.348.184.727.309 1.117.363.992.485 1.645 1.211 1.645 1.903 0 .101.082.183.187.183a.183.183 0 00.184-.183c0-.653-.438-1.317-1.18-1.836h.11c.812 0 2.66-1.32 2.675-1.336a.815.815 0 01.512-.133c.082.105.258.422.024.988a2.164 2.164 0 01-.688.89 1.302 1.302 0 00-.406.47c-.051.144-.086.297-.11.449-.054.32-.101.531-.246.55a.774.774 0 00-.558.352c-.524.801.05 2.63.058 2.645.215.664.176 2.117-1.172 3.613-.593.031-.992.059-.992.059a.187.187 0 00-.18.191c.004.098.09.176.196.172h.015l.579-.035c-.055.054-.133.113-.2.172zm0 0" fill="#1d1d1b"/><path d="M15.168 6.145c.055 0 .11-.028.14-.07l.794-.95a.177.177 0 00.035-.18.192.192 0 00-.149-.117.183.183 0 00-.175.07l-.79.946a.173.173 0 00-.023.191.18.18 0 00.168.106zm-.918-.493a.19.19 0 00.066 0 .18.18 0 00.172-.113l.352-.89a.182.182 0 00-.106-.235.184.184 0 00-.242.102l-.351.89a.195.195 0 000 .149.17.17 0 00.109.097zm-.762-.074a.184.184 0 00.125-.062.17.17 0 00.047-.133l-.062-.774a.185.185 0 00-.203-.164.178.178 0 00-.168.196l.058.77c.004.05.027.093.067.124.039.031.085.047.136.043zm0 0M8.82 13.965a.26.26 0 01-.52 0 .26.26 0 01.52 0zm0 0M8.906 14.828c0 .14-.117.254-.258.254a.258.258 0 01-.261-.254c0-.14.117-.254.261-.254.141 0 .258.114.258.254zm0 0M9.586 15.395c0 .14-.117.253-.258.253a.258.258 0 01-.262-.253c0-.141.118-.254.262-.254.14 0 .258.113.258.254zm0 0M9.816 14.512c0 .14-.117.254-.261.254a.258.258 0 01-.262-.254c0-.14.117-.254.262-.254.144 0 .261.113.261.254zm0 0M10.54 14.957c0 .14-.118.254-.263.254a.257.257 0 01-.257-.254c0-.14.117-.254.257-.254.145 0 .262.113.262.254zm0 0M14.707 13.965a.26.26 0 01-.52 0 .26.26 0 01.52 0zm0 0M14.621 14.828c0 .14-.117.254-.262.254a.257.257 0 01-.257-.254c0-.14.117-.254.257-.254.145 0 .262.114.262.254zm0 0M13.941 15.395c0 .14-.117.253-.261.253a.257.257 0 01-.258-.253c0-.141.117-.254.258-.254.144 0 .261.113.261.254zm0 0M13.715 14.512c0 .14-.117.254-.262.254a.258.258 0 01-.262-.254c0-.14.118-.254.262-.254.145 0 .262.113.262.254zm0 0M12.988 14.957c0 .14-.117.254-.258.254a.258.258 0 01-.261-.254c0-.14.117-.254.261-.254.141 0 .258.113.258.254zm0 0M12.387 9.766a.192.192 0 00-.137.043.193.193 0 00-.063.125 2.22 2.22 0 01-.683 1.304 2.187 2.187 0 01-.676-1.308.183.183 0 00-.203-.164.184.184 0 00-.172.195 2.66 2.66 0 00.926 1.66.21.21 0 00.117.04.2.2 0 00.117-.04 2.66 2.66 0 00.926-1.66.186.186 0 00-.152-.195zm-3.27.652a.195.195 0 00-.25.066c-.05.086-.113.176-.18.27-.332.469-.832 1.18-.128 1.937a.19.19 0 00.246-.007.171.171 0 00.027-.235c-.469-.496-.23-.926.16-1.476.07-.106.14-.203.195-.293a.19.19 0 00.024-.145.189.189 0 00-.094-.117zm5.04.066a.19.19 0 00-.255-.066.181.181 0 00-.07.25c.055.09.125.187.195.293.391.55.63.98.16 1.476a.174.174 0 00-.058.184c.016.07.074.121.148.133.07.012.141-.02.184-.074.707-.75.203-1.453-.129-1.938a2.733 2.733 0 01-.176-.258zm-4.665 2.309a.183.183 0 00-.12-.23.188.188 0 00-.235.117c-.14.449.054.933.476 1.168a.19.19 0 00.254-.067c.051-.086.02-.199-.07-.25a.628.628 0 01-.305-.738zm3.903 1.047a.99.99 0 00.472-1.168.188.188 0 00-.234-.117.183.183 0 00-.121.23.631.631 0 01-.305.735.176.176 0 00-.066.246c.05.086.164.117.254.066zm-1.176-1.012a.953.953 0 01-.715.317.946.946 0 01-.715-.317.195.195 0 00-.27-.02.182.182 0 00-.019.262c.25.285.617.45 1 .45.387 0 .754-.165 1.004-.45a.186.186 0 00-.02-.261.195.195 0 00-.27.02zM6.672 9.285a.194.194 0 00-.195-.004.173.173 0 00-.094.164c.004.07.047.13.11.16.652.348.933.868.933 1.055 0 .098.086.18.187.18a.186.186 0 00.188-.18c0-.375-.422-.992-1.13-1.375zm9.937.074a.189.189 0 00-.246-.074c-.715.383-1.14 1-1.14 1.375 0 .102.086.184.187.184a.183.183 0 00.184-.184c0-.183.285-.707.937-1.055a.18.18 0 00.094-.105.195.195 0 00-.016-.14zm0 0" fill="#1d1d1b"/><path d="M28.305 13.793l-.227-.555h-.867l-.227.555h-.144l.723-1.766h.164l.722 1.766zm-1.043-.676h.765l-.312-.77-.07-.187-.067.18zm3.547-.187h.742v.863h-.11l-.003-.309a.55.55 0 01-.231.25.808.808 0 01-.395.086.846.846 0 01-.43-.11.714.714 0 01-.284-.32 1.088 1.088 0 01-.102-.48c0-.183.035-.344.106-.48a.722.722 0 01.289-.32.808.808 0 01.43-.11c.187 0 .335.035.452.105a.678.678 0 01.266.329l-.129.062a.49.49 0 00-.21-.277.666.666 0 00-.38-.098.64.64 0 00-.593.371.984.984 0 00-.086.418c0 .246.062.438.18.578.12.14.288.211.5.211a.689.689 0 00.335-.078.489.489 0 00.2-.2.54.54 0 00.066-.269v-.097h-.613zm2.738.742h1.14v.121H33.41v-1.766h1.235v.121h-1.098v.684h.867v.125h-.867zm4.3-1.645v1.766h-.171l-.957-1.387-.133-.234h-.004l.008.223v1.398h-.133v-1.766h.176l.953 1.383.137.238-.004-.222v-1.399zm3.376 1.32a.649.649 0 01-.27.348.811.811 0 01-.453.125.875.875 0 01-.438-.11.745.745 0 01-.289-.32 1.088 1.088 0 01-.097-.48c0-.183.031-.344.097-.48a.745.745 0 01.29-.32.832.832 0 01.433-.11c.36 0 .594.145.703.438l-.136.058a.53.53 0 00-.204-.281.616.616 0 00-.355-.094.653.653 0 00-.36.098.607.607 0 00-.238.273.929.929 0 00-.086.418c0 .16.028.3.086.418a.62.62 0 00.594.371c.145 0 .27-.035.371-.105a.55.55 0 00.211-.297zm1.91.325h1.144v.121h-1.28v-1.766h1.233v.121h-1.097v.684h.87v.125h-.87zm5.71-1.645c.29 0 .512.075.669.223.156.148.234.363.234.648 0 .29-.078.508-.234.665-.157.152-.38.23-.668.23h-.57v-1.766zm.012 1.645c.243 0 .426-.067.555-.203.13-.133.195-.324.195-.57 0-.243-.066-.426-.195-.555-.129-.13-.312-.196-.555-.196h-.445v1.524zm2.86 0h1.14v.121h-1.277v-1.766h1.234v.121h-1.097v.684h.867v.125h-.867zm6.035-1.117l-.363 1.238h-.172l-.563-1.766h.149l.504 1.657.472-1.657h.16l.473 1.66.508-1.66h.14l-.566 1.766h-.168l-.367-1.238-.102-.383h-.003zm3.184 1.117h1.144v.121h-1.281v-1.766h1.238v.121h-1.101v.684h.867v.125h-.867zm2.91.121v-1.766h.64c.2 0 .348.04.446.121a.43.43 0 01.144.348.421.421 0 01-.086.262.43.43 0 01-.246.14c.117.02.211.067.278.141a.39.39 0 01.105.277c0 .153-.055.27-.168.352-.11.082-.27.125-.473.125zm.136-.953h.508c.293 0 .442-.113.442-.344 0-.23-.149-.348-.442-.348h-.508zm0 .832h.532c.152 0 .27-.031.347-.094.079-.058.118-.148.118-.262 0-.113-.04-.203-.118-.261-.078-.063-.195-.09-.347-.09h-.532zm5.77-1.645c.29 0 .512.075.668.223.156.148.234.363.234.648 0 .29-.078.508-.234.665-.156.152-.379.23-.668.23h-.57v-1.766zm.012 1.645c.242 0 .425-.067.554-.203.13-.133.192-.324.192-.57 0-.243-.063-.426-.192-.555-.129-.13-.312-.196-.554-.196h-.446v1.524zm2.855 0h1.145v.121H72.48v-1.766h1.239v.121h-1.102v.684h.871v.125h-.87zM76.09 12c.34 0 .57.129.683.39l-.117.094a.53.53 0 00-.207-.277.673.673 0 00-.355-.086c-.106 0-.2.02-.278.05a.419.419 0 00-.18.13.31.31 0 00-.062.187c0 .07.02.125.055.168.031.047.09.086.176.117.082.032.199.059.343.082.235.04.403.098.5.172.098.075.149.18.149.313a.389.389 0 01-.086.25.498.498 0 01-.238.168.917.917 0 01-.356.062c-.187 0-.347-.039-.48-.11a.584.584 0 01-.27-.312l.125-.093c.035.129.11.226.219.293.11.066.246.101.41.101a.703.703 0 00.383-.094.29.29 0 00.152-.257.258.258 0 00-.125-.227c-.078-.055-.222-.098-.422-.133a1.733 1.733 0 01-.402-.105.449.449 0 01-.21-.153.38.38 0 01-.067-.226c0-.09.027-.176.082-.25a.5.5 0 01.23-.184.8.8 0 01.348-.07zm2.644.027v1.766h-.136v-1.766zm2.641.903h.742v.863h-.11l-.003-.309a.539.539 0 01-.234.25.792.792 0 01-.391.086.846.846 0 01-.43-.11.714.714 0 01-.285-.32 1.088 1.088 0 01-.102-.48c0-.183.036-.344.102-.48a.753.753 0 01.293-.32.808.808 0 01.43-.11c.187 0 .336.035.453.105a.65.65 0 01.262.329l-.125.062a.49.49 0 00-.211-.277.675.675 0 00-.38-.098.64.64 0 00-.593.371.984.984 0 00-.086.418c0 .246.063.438.184.578.117.14.28.211.496.211a.673.673 0 00.332-.078.476.476 0 00.203-.2.54.54 0 00.066-.269v-.097h-.613zm3.988-.903v1.766h-.168l-.96-1.387-.133-.234h-.004l.007.223v1.398h-.132v-1.766h.172l.96 1.383.137.238-.008-.222v-1.399zm0 0"/></svg>