<?xml version="1.0" encoding="UTF-8"?>
<svg xmlns="http://www.w3.org/2000/svg" xmlns:xlink="http://www.w3.org/1999/xlink" width="100px" height="100px" viewBox="0 0 100 18" version="1.1">
<g id="surface1">
<path style=" stroke:none;fill-rule:nonzero;fill:rgb(0%,0%,0%);fill-opacity:1;" d="M 27.519531 10.570312 C 27.441406 10.375 27.402344 10.101562 27.402344 9.75 C 27.402344 9.402344 27.527344 8.367188 27.769531 6.648438 C 28.015625 4.933594 28.136719 3.558594 28.136719 2.519531 C 28.136719 2.273438 28.117188 1.941406 28.082031 1.515625 C 28.714844 1.550781 29.109375 1.695312 29.269531 1.953125 C 29.351562 2.101562 29.40625 2.246094 29.429688 2.378906 C 29.453125 2.511719 29.464844 2.726562 29.464844 3.015625 C 29.464844 3.300781 29.332031 4.382812 29.066406 6.265625 C 28.789062 8.148438 28.652344 9.488281 28.644531 10.292969 C 28.6875 10.28125 28.761719 10.273438 28.867188 10.273438 C 30.671875 10.273438 32.015625 10.152344 32.894531 9.910156 C 32.835938 10.378906 32.671875 10.746094 32.402344 11.007812 C 32.128906 11.269531 31.789062 11.398438 31.386719 11.398438 C 31.265625 11.398438 30.90625 11.371094 30.304688 11.320312 C 29.699219 11.269531 29.113281 11.242188 28.546875 11.242188 C 27.980469 11.242188 27.414062 11.292969 26.839844 11.398438 C 26.953125 11.039062 27.179688 10.761719 27.519531 10.570312 Z M 35.742188 6.527344 C 35.503906 6.933594 35.320312 7.351562 35.191406 7.78125 C 35.058594 8.207031 34.992188 8.617188 34.992188 9.011719 C 34.992188 9.398438 35.082031 9.730469 35.261719 10.003906 C 35.441406 10.277344 35.695312 10.414062 36.027344 10.414062 C 36.5 10.414062 36.9375 10.164062 37.339844 9.664062 C 37.753906 9.160156 38.066406 8.550781 38.289062 7.84375 C 38.507812 7.128906 38.617188 6.46875 38.617188 5.863281 C 38.617188 5.261719 38.59375 4.765625 38.546875 4.375 C 38.742188 4.355469 38.867188 4.347656 38.921875 4.347656 C 39.628906 4.347656 39.984375 4.703125 39.984375 5.410156 C 39.984375 5.5625 39.882812 6.191406 39.679688 7.292969 C 39.484375 8.398438 39.386719 9.28125 39.386719 9.941406 C 39.386719 10.605469 39.515625 11.191406 39.769531 11.703125 C 39.246094 11.597656 38.867188 11.371094 38.628906 11.023438 C 38.390625 10.679688 38.269531 10.183594 38.269531 9.535156 C 38.269531 9.417969 38.289062 9.195312 38.324219 8.871094 C 38.097656 9.644531 37.703125 10.265625 37.136719 10.738281 C 36.566406 11.210938 36.007812 11.449219 35.464844 11.449219 C 34.917969 11.449219 34.476562 11.246094 34.144531 10.839844 C 33.8125 10.441406 33.644531 9.886719 33.644531 9.175781 C 33.644531 8.460938 33.78125 7.765625 34.054688 7.085938 C 34.324219 6.40625 34.730469 5.820312 35.277344 5.324219 C 35.820312 4.824219 36.429688 4.574219 37.109375 4.574219 C 37.402344 4.574219 37.722656 4.632812 38.074219 4.75 C 37.578125 4.871094 37.128906 5.09375 36.714844 5.421875 C 36.3125 5.746094 35.988281 6.113281 35.742188 6.527344 Z M 48.324219 2.824219 L 48.332031 2.972656 C 48.332031 3.28125 48.214844 4.289062 47.976562 6.003906 C 47.738281 7.710938 47.617188 9.140625 47.617188 10.292969 C 47.617188 10.804688 47.644531 11.199219 47.699219 11.484375 C 47.496094 11.503906 47.386719 11.511719 47.367188 11.511719 C 46.992188 11.511719 46.714844 11.429688 46.53125 11.257812 C 46.351562 11.089844 46.261719 10.816406 46.261719 10.441406 C 46.261719 10.0625 46.402344 8.90625 46.679688 6.972656 C 46.957031 5.042969 47.09375 3.664062 47.09375 2.839844 C 47.09375 2.015625 47.035156 1.476562 46.921875 1.21875 C 47.191406 1.253906 47.4375 1.355469 47.664062 1.523438 C 47.894531 1.6875 48.066406 1.910156 48.179688 2.1875 C 48.816406 1.855469 49.527344 1.691406 50.304688 1.691406 C 51.082031 1.691406 51.691406 1.921875 52.136719 2.386719 C 52.582031 2.859375 52.804688 3.433594 52.804688 4.113281 C 52.804688 4.984375 52.480469 5.769531 51.832031 6.464844 C 51.183594 7.15625 50.308594 7.503906 49.207031 7.503906 C 48.957031 7.503906 48.730469 7.488281 48.519531 7.460938 L 48.484375 7.066406 C 49.042969 7.066406 49.53125 6.984375 49.949219 6.824219 C 50.367188 6.660156 50.679688 6.445312 50.894531 6.179688 C 51.320312 5.65625 51.53125 5.046875 51.53125 4.347656 C 51.53125 3.84375 51.367188 3.421875 51.039062 3.085938 C 50.710938 2.746094 50.234375 2.578125 49.609375 2.578125 C 49.234375 2.578125 48.804688 2.660156 48.324219 2.824219 Z M 55.574219 6.527344 C 55.332031 6.933594 55.144531 7.351562 55.011719 7.78125 C 54.886719 8.207031 54.824219 8.617188 54.824219 9.011719 C 54.824219 9.398438 54.914062 9.730469 55.09375 10.003906 C 55.269531 10.277344 55.527344 10.414062 55.859375 10.414062 C 56.324219 10.414062 56.761719 10.164062 57.171875 9.664062 C 57.578125 9.160156 57.890625 8.550781 58.109375 7.84375 C 58.335938 7.128906 58.449219 6.46875 58.449219 5.863281 C 58.449219 5.261719 58.421875 4.765625 58.371094 4.375 C 58.570312 4.355469 58.695312 4.347656 58.746094 4.347656 C 59.453125 4.347656 59.808594 4.703125 59.808594 5.410156 C 59.808594 5.5625 59.707031 6.191406 59.511719 7.292969 C 59.308594 8.398438 59.207031 9.28125 59.207031 9.941406 C 59.207031 10.605469 59.335938 11.191406 59.59375 11.703125 C 59.070312 11.597656 58.6875 11.371094 58.449219 11.023438 C 58.210938 10.679688 58.09375 10.183594 58.09375 9.535156 C 58.09375 9.417969 58.109375 9.195312 58.144531 8.871094 C 57.917969 9.644531 57.523438 10.265625 56.957031 10.738281 C 56.394531 11.210938 55.835938 11.449219 55.289062 11.449219 C 54.742188 11.449219 54.300781 11.246094 53.96875 10.839844 C 53.632812 10.441406 53.46875 9.886719 53.46875 9.175781 C 53.46875 8.460938 53.605469 7.765625 53.878906 7.085938 C 54.144531 6.40625 54.554688 5.820312 55.101562 5.324219 C 55.648438 4.824219 56.257812 4.574219 56.933594 4.574219 C 57.222656 4.574219 57.542969 4.632812 57.894531 4.75 C 57.402344 4.871094 56.953125 5.09375 56.546875 5.421875 C 56.136719 5.746094 55.8125 6.113281 55.574219 6.527344 Z M 67.53125 5.996094 C 67.53125 6.367188 67.449219 7.027344 67.289062 7.972656 C 67.128906 8.921875 67.046875 9.613281 67.046875 10.046875 C 67.046875 10.476562 67.101562 10.789062 67.207031 10.980469 C 67.316406 11.171875 67.5 11.335938 67.761719 11.46875 C 67.648438 11.480469 67.496094 11.484375 67.296875 11.484375 C 66.734375 11.484375 66.332031 11.382812 66.09375 11.171875 C 65.855469 10.964844 65.734375 10.589844 65.734375 10.058594 C 65.734375 9.753906 65.820312 9.148438 65.984375 8.234375 C 66.152344 7.316406 66.234375 6.644531 66.234375 6.214844 C 66.234375 5.679688 66.070312 5.410156 65.734375 5.410156 C 65.199219 5.410156 64.644531 5.871094 64.074219 6.789062 C 63.503906 7.707031 63.21875 8.8125 63.21875 10.109375 C 63.21875 10.621094 63.246094 11.019531 63.296875 11.304688 C 63.078125 11.320312 62.945312 11.328125 62.90625 11.328125 C 62.171875 11.328125 61.808594 10.976562 61.808594 10.273438 C 61.808594 10.113281 61.894531 9.488281 62.074219 8.402344 C 62.246094 7.308594 62.332031 6.441406 62.332031 5.796875 C 62.332031 5.144531 62.261719 4.550781 62.121094 4.007812 C 62.613281 4.195312 62.957031 4.457031 63.15625 4.800781 C 63.351562 5.148438 63.449219 5.546875 63.449219 5.988281 C 63.449219 6.429688 63.398438 6.941406 63.296875 7.53125 C 63.570312 6.613281 64.003906 5.839844 64.59375 5.210938 C 65.175781 4.578125 65.722656 4.261719 66.234375 4.261719 C 67.097656 4.261719 67.53125 4.839844 67.53125 5.996094 Z M 73.523438 4.617188 C 73.523438 4.957031 73.457031 5.191406 73.324219 5.324219 C 73.1875 5.453125 72.992188 5.515625 72.734375 5.515625 L 71.835938 5.515625 C 71.796875 5.730469 71.710938 6.238281 71.574219 7.03125 C 71.289062 8.542969 71.144531 9.683594 71.144531 10.457031 C 71.144531 11.230469 71.207031 11.746094 71.324219 12 C 70.847656 11.824219 70.507812 11.566406 70.308594 11.222656 C 70.109375 10.875 70.011719 10.453125 70.011719 9.960938 C 70.011719 9.460938 70.042969 8.992188 70.101562 8.550781 C 70.167969 8.109375 70.257812 7.589844 70.371094 6.996094 C 70.488281 6.398438 70.570312 5.921875 70.621094 5.570312 C 70.144531 5.632812 69.675781 5.761719 69.21875 5.960938 C 69.207031 5.828125 69.199219 5.707031 69.199219 5.601562 C 69.199219 5.214844 69.332031 4.953125 69.59375 4.820312 C 69.859375 4.6875 70.246094 4.617188 70.746094 4.617188 C 70.804688 4.015625 70.832031 3.5625 70.832031 3.269531 C 70.832031 2.972656 70.832031 2.734375 70.824219 2.554688 C 70.824219 2.375 70.824219 2.238281 70.824219 2.152344 C 71.207031 2.210938 71.5 2.375 71.710938 2.648438 C 71.917969 2.917969 72.023438 3.289062 72.023438 3.765625 C 72.023438 4.007812 72 4.304688 71.960938 4.652344 C 72.683594 4.652344 73.195312 4.535156 73.496094 4.296875 C 73.511719 4.414062 73.523438 4.519531 73.523438 4.617188 Z M 75.871094 7.53125 C 76.144531 6.613281 76.566406 5.839844 77.136719 5.210938 C 77.710938 4.578125 78.246094 4.261719 78.746094 4.261719 C 79.246094 4.261719 79.597656 4.410156 79.808594 4.707031 C 80.015625 5.003906 80.121094 5.40625 80.121094 5.917969 C 80.121094 6.421875 80.039062 7.132812 79.878906 8.050781 C 79.71875 8.976562 79.636719 9.648438 79.636719 10.066406 C 79.636719 10.484375 79.691406 10.789062 79.796875 10.980469 C 79.90625 11.171875 80.085938 11.335938 80.34375 11.46875 C 80.234375 11.480469 80.085938 11.484375 79.886719 11.484375 C 79.351562 11.484375 78.957031 11.378906 78.699219 11.164062 C 78.449219 10.949219 78.324219 10.578125 78.324219 10.058594 C 78.324219 9.753906 78.410156 9.148438 78.574219 8.234375 C 78.742188 7.316406 78.824219 6.644531 78.824219 6.214844 C 78.824219 5.679688 78.632812 5.410156 78.246094 5.410156 C 78.019531 5.410156 77.769531 5.527344 77.496094 5.761719 C 77.222656 5.988281 76.957031 6.296875 76.699219 6.691406 C 76.449219 7.085938 76.238281 7.589844 76.066406 8.199219 C 75.894531 8.804688 75.808594 9.398438 75.808594 9.988281 C 75.808594 10.578125 75.835938 11.019531 75.886719 11.304688 C 75.683594 11.320312 75.570312 11.328125 75.546875 11.328125 C 75.15625 11.328125 74.867188 11.246094 74.683594 11.085938 C 74.492188 10.921875 74.398438 10.667969 74.398438 10.316406 C 74.398438 9.976562 74.472656 9.308594 74.621094 8.324219 C 75.058594 5.296875 75.28125 2.996094 75.28125 1.429688 C 75.28125 0.71875 75.234375 0.242188 75.136719 0 C 75.621094 0.175781 75.960938 0.425781 76.15625 0.757812 C 76.351562 1.09375 76.449219 1.554688 76.449219 2.136719 C 76.449219 2.542969 76.367188 3.394531 76.199219 4.695312 C 76.039062 6 75.929688 6.941406 75.871094 7.53125 Z M 85.324219 4.898438 C 84.824219 4.898438 84.402344 5.175781 84.058594 5.734375 C 83.707031 6.296875 83.472656 6.957031 83.359375 7.710938 L 83.710938 7.710938 C 84.148438 7.710938 84.535156 7.652344 84.859375 7.53125 C 85.183594 7.40625 85.433594 7.25 85.609375 7.058594 C 85.945312 6.679688 86.109375 6.257812 86.109375 5.785156 C 86.109375 5.519531 86.046875 5.304688 85.914062 5.140625 C 85.785156 4.980469 85.585938 4.898438 85.324219 4.898438 Z M 87.085938 9.839844 C 86.703125 10.449219 86.285156 10.875 85.824219 11.121094 C 85.367188 11.363281 84.835938 11.484375 84.226562 11.484375 C 83.625 11.484375 83.097656 11.222656 82.648438 10.703125 C 82.195312 10.183594 81.96875 9.453125 81.96875 8.503906 C 81.96875 7.429688 82.265625 6.472656 82.859375 5.628906 C 83.152344 5.222656 83.535156 4.890625 84.003906 4.636719 C 84.472656 4.386719 84.992188 4.261719 85.558594 4.261719 C 86.808594 4.261719 87.433594 4.851562 87.433594 6.03125 C 87.433594 6.738281 87.152344 7.292969 86.59375 7.695312 C 86.027344 8.097656 85.375 8.296875 84.636719 8.296875 C 84.144531 8.296875 83.699219 8.253906 83.308594 8.164062 C 83.300781 8.246094 83.296875 8.371094 83.296875 8.539062 C 83.296875 9.980469 83.734375 10.703125 84.609375 10.703125 C 85.433594 10.703125 86.101562 10.304688 86.621094 9.507812 C 86.929688 9.546875 87.085938 9.660156 87.085938 9.839844 Z M 86.835938 3.347656 C 86.828125 3.433594 86.785156 3.519531 86.699219 3.597656 C 86.625 3.675781 86.535156 3.722656 86.433594 3.746094 C 86.136719 3.382812 85.75 3.019531 85.28125 2.667969 C 84.8125 2.304688 84.332031 2.054688 83.84375 1.910156 C 83.859375 1.484375 84.0625 1.148438 84.449219 0.90625 C 84.890625 1.074219 85.347656 1.410156 85.816406 1.917969 C 86.285156 2.417969 86.625 2.894531 86.835938 3.347656 Z M 90.523438 7.335938 C 90.820312 6.28125 91.179688 5.5 91.601562 5.003906 C 92.023438 4.503906 92.417969 4.253906 92.78125 4.253906 C 93.144531 4.253906 93.414062 4.382812 93.59375 4.644531 C 93.777344 4.914062 93.871094 5.25 93.871094 5.65625 C 93.871094 6.0625 93.761719 6.414062 93.550781 6.710938 C 93.328125 7.007812 93.011719 7.15625 92.59375 7.15625 C 92.460938 7.15625 92.359375 7.144531 92.28125 7.128906 C 92.566406 6.726562 92.710938 6.320312 92.710938 5.910156 C 92.710938 5.617188 92.585938 5.472656 92.34375 5.472656 C 92.152344 5.472656 91.949219 5.582031 91.738281 5.796875 C 91.515625 6.015625 91.308594 6.320312 91.113281 6.710938 C 90.910156 7.105469 90.742188 7.613281 90.613281 8.234375 C 90.472656 8.863281 90.40625 9.539062 90.40625 10.265625 C 90.40625 10.347656 90.425781 10.691406 90.46875 11.304688 C 90.253906 11.320312 90.128906 11.328125 90.09375 11.328125 C 89.363281 11.328125 88.996094 10.976562 88.996094 10.273438 C 88.996094 10.113281 89.085938 9.488281 89.261719 8.402344 C 89.4375 7.308594 89.523438 6.441406 89.523438 5.796875 C 89.523438 5.144531 89.449219 4.550781 89.308594 4.007812 C 89.800781 4.195312 90.148438 4.457031 90.34375 4.800781 C 90.539062 5.148438 90.636719 5.554688 90.636719 6.011719 C 90.636719 6.472656 90.597656 6.914062 90.523438 7.335938 Z M 97.886719 4.898438 C 97.386719 4.898438 96.960938 5.175781 96.613281 5.734375 C 96.265625 6.296875 96.039062 6.957031 95.925781 7.710938 L 96.273438 7.710938 C 96.710938 7.710938 97.097656 7.652344 97.425781 7.53125 C 97.746094 7.40625 97.996094 7.25 98.175781 7.058594 C 98.507812 6.679688 98.675781 6.257812 98.675781 5.785156 C 98.675781 5.519531 98.609375 5.304688 98.476562 5.140625 C 98.347656 4.980469 98.152344 4.898438 97.886719 4.898438 Z M 99.648438 9.839844 C 99.265625 10.449219 98.847656 10.875 98.386719 11.121094 C 97.929688 11.363281 97.398438 11.484375 96.789062 11.484375 C 96.1875 11.484375 95.664062 11.222656 95.210938 10.703125 C 94.757812 10.183594 94.53125 9.453125 94.53125 8.503906 C 94.53125 7.429688 94.828125 6.472656 95.425781 5.628906 C 95.714844 5.222656 96.097656 4.890625 96.566406 4.636719 C 97.039062 4.386719 97.554688 4.261719 98.121094 4.261719 C 99.371094 4.261719 99.996094 4.851562 99.996094 6.03125 C 99.996094 6.738281 99.714844 7.292969 99.15625 7.695312 C 98.589844 8.097656 97.9375 8.296875 97.199219 8.296875 C 96.707031 8.296875 96.261719 8.253906 95.871094 8.164062 C 95.863281 8.246094 95.863281 8.371094 95.863281 8.539062 C 95.863281 9.980469 96.300781 10.703125 97.175781 10.703125 C 97.996094 10.703125 98.664062 10.304688 99.183594 9.507812 C 99.492188 9.546875 99.648438 9.660156 99.648438 9.839844 Z M 99.648438 9.839844 "/>
<path style=" stroke:none;fill-rule:nonzero;fill:rgb(11.372549%,11.372549%,10.588235%);fill-opacity:1;" d="M 10.015625 8.210938 L 10.015625 8.191406 C 9.828125 7.867188 9.511719 7.628906 9.144531 7.535156 L 9.109375 7.535156 C 8.90625 7.476562 8.699219 7.4375 8.488281 7.421875 C 7.917969 7.347656 7.375 7.148438 6.894531 6.84375 C 6.808594 6.796875 6.699219 6.820312 6.644531 6.898438 C 6.589844 6.976562 6.605469 7.085938 6.6875 7.144531 C 6.84375 7.246094 7.011719 7.335938 7.179688 7.414062 C 7.179688 7.4375 7.160156 7.460938 7.152344 7.488281 C 6.925781 8.269531 7.382812 9.078125 8.179688 9.304688 C 8.324219 9.347656 8.472656 9.367188 8.621094 9.367188 C 9.078125 9.371094 9.507812 9.164062 9.785156 8.816406 C 9.808594 9.058594 9.792969 9.300781 9.742188 9.542969 C 9.722656 9.589844 9.722656 9.640625 9.746094 9.6875 C 9.765625 9.734375 9.808594 9.769531 9.855469 9.78125 C 9.878906 9.785156 9.898438 9.785156 9.917969 9.78125 C 9.996094 9.78125 10.066406 9.734375 10.09375 9.660156 C 10.171875 9.335938 10.191406 9 10.148438 8.667969 C 10.136719 8.507812 10.089844 8.351562 10.015625 8.210938 Z M 8.90625 7.847656 C 8.917969 7.890625 8.917969 7.933594 8.90625 7.976562 C 8.859375 8.144531 8.679688 8.242188 8.503906 8.195312 C 8.332031 8.148438 8.230469 7.972656 8.28125 7.804688 C 8.285156 7.789062 8.292969 7.773438 8.300781 7.761719 L 8.453125 7.777344 C 8.605469 7.789062 8.761719 7.816406 8.914062 7.851562 Z M 9.140625 8.878906 C 8.875 9.011719 8.566406 9.039062 8.277344 8.957031 C 7.675781 8.785156 7.328125 8.171875 7.5 7.582031 L 7.5 7.554688 C 7.636719 7.605469 7.777344 7.652344 7.921875 7.6875 L 7.921875 7.703125 C 7.839844 7.945312 7.910156 8.214844 8.101562 8.394531 C 8.289062 8.574219 8.566406 8.632812 8.816406 8.542969 C 9.066406 8.457031 9.242188 8.242188 9.273438 7.984375 C 9.421875 8.058594 9.546875 8.167969 9.640625 8.304688 C 9.554688 8.550781 9.378906 8.753906 9.144531 8.878906 Z M 15.859375 7.484375 C 15.859375 7.457031 15.839844 7.433594 15.832031 7.410156 C 16.003906 7.328125 16.167969 7.242188 16.328125 7.140625 C 16.40625 7.082031 16.425781 6.972656 16.367188 6.894531 C 16.3125 6.8125 16.203125 6.789062 16.117188 6.839844 C 15.636719 7.144531 15.09375 7.339844 14.523438 7.417969 C 14.3125 7.429688 14.101562 7.46875 13.898438 7.53125 L 13.871094 7.53125 C 13.496094 7.625 13.179688 7.863281 12.992188 8.191406 L 12.992188 8.207031 C 12.914062 8.351562 12.867188 8.511719 12.859375 8.675781 C 12.816406 9.007812 12.835938 9.34375 12.914062 9.667969 C 12.941406 9.742188 13.011719 9.792969 13.089844 9.792969 C 13.152344 9.792969 13.210938 9.765625 13.246094 9.71875 C 13.28125 9.667969 13.289062 9.605469 13.269531 9.550781 C 13.21875 9.3125 13.203125 9.066406 13.222656 8.824219 C 13.5 9.175781 13.929688 9.378906 14.386719 9.375 C 14.535156 9.375 14.683594 9.355469 14.828125 9.316406 C 15.214844 9.207031 15.539062 8.953125 15.734375 8.609375 C 15.929688 8.265625 15.972656 7.859375 15.859375 7.484375 Z M 14.546875 7.777344 L 14.695312 7.761719 C 14.703125 7.773438 14.710938 7.789062 14.71875 7.804688 C 14.765625 7.96875 14.667969 8.140625 14.496094 8.191406 C 14.394531 8.222656 14.28125 8.199219 14.199219 8.128906 C 14.117188 8.058594 14.074219 7.953125 14.09375 7.847656 C 14.242188 7.8125 14.394531 7.789062 14.550781 7.777344 Z M 14.726562 8.957031 C 14.441406 9.039062 14.132812 9.011719 13.863281 8.878906 C 13.632812 8.753906 13.453125 8.546875 13.367188 8.300781 C 13.460938 8.167969 13.585938 8.058594 13.734375 7.984375 C 13.738281 8.015625 13.746094 8.046875 13.753906 8.074219 C 13.839844 8.363281 14.113281 8.558594 14.421875 8.558594 C 14.632812 8.554688 14.832031 8.453125 14.960938 8.289062 C 15.089844 8.125 15.132812 7.910156 15.078125 7.707031 L 15.078125 7.695312 C 15.21875 7.65625 15.359375 7.613281 15.5 7.5625 L 15.5 7.589844 C 15.667969 8.175781 15.324219 8.78125 14.726562 8.957031 Z M 14.726562 8.957031 "/>
<path style=" stroke:none;fill-rule:nonzero;fill:rgb(11.372549%,11.372549%,10.588235%);fill-opacity:1;" d="M 10.59375 7.925781 C 10.554688 7.378906 10.097656 7.035156 9.316406 6.976562 C 8.902344 6.921875 8.507812 6.785156 8.15625 6.566406 C 8.070312 6.511719 7.957031 6.535156 7.898438 6.617188 C 7.839844 6.699219 7.863281 6.8125 7.949219 6.867188 C 8.355469 7.121094 8.8125 7.28125 9.289062 7.335938 C 9.625 7.359375 10.191406 7.472656 10.222656 7.949219 C 10.230469 8.042969 10.3125 8.117188 10.410156 8.117188 L 10.421875 8.117188 C 10.523438 8.109375 10.601562 8.023438 10.59375 7.925781 Z M 13.8125 7.335938 C 14.289062 7.28125 14.746094 7.121094 15.152344 6.867188 C 15.238281 6.8125 15.261719 6.699219 15.203125 6.617188 C 15.148438 6.535156 15.03125 6.511719 14.945312 6.566406 C 14.59375 6.785156 14.195312 6.929688 13.78125 6.984375 C 13.011719 7.039062 12.542969 7.386719 12.503906 7.929688 C 12.503906 7.980469 12.519531 8.027344 12.550781 8.0625 C 12.582031 8.101562 12.628906 8.121094 12.679688 8.125 L 12.691406 8.125 C 12.789062 8.125 12.871094 8.050781 12.878906 7.957031 C 12.914062 7.46875 13.488281 7.363281 13.8125 7.335938 Z M 7.695312 6.074219 C 7.734375 6.128906 7.804688 6.152344 7.871094 6.144531 C 7.9375 6.132812 7.992188 6.089844 8.015625 6.027344 C 8.039062 5.964844 8.027344 5.894531 7.984375 5.84375 L 7.191406 4.898438 C 7.148438 4.84375 7.082031 4.816406 7.015625 4.828125 C 6.949219 4.839844 6.894531 4.882812 6.871094 4.945312 C 6.847656 5.007812 6.859375 5.078125 6.902344 5.125 Z M 8.527344 5.550781 C 8.554688 5.621094 8.625 5.667969 8.703125 5.667969 C 8.761719 5.664062 8.816406 5.636719 8.851562 5.589844 C 8.886719 5.539062 8.894531 5.480469 8.875 5.425781 L 8.527344 4.535156 C 8.488281 4.441406 8.382812 4.394531 8.285156 4.429688 C 8.1875 4.464844 8.140625 4.570312 8.179688 4.664062 Z M 9.519531 5.578125 C 9.617188 5.578125 9.699219 5.503906 9.707031 5.410156 L 9.769531 4.640625 C 9.773438 4.589844 9.757812 4.542969 9.722656 4.507812 C 9.691406 4.46875 9.644531 4.449219 9.597656 4.445312 C 9.546875 4.4375 9.5 4.453125 9.460938 4.484375 C 9.421875 4.515625 9.398438 4.5625 9.394531 4.609375 L 9.335938 5.382812 C 9.332031 5.433594 9.347656 5.484375 9.382812 5.519531 C 9.417969 5.554688 9.46875 5.578125 9.519531 5.578125 Z M 9.519531 5.578125 "/>
<path style=" stroke:none;fill-rule:nonzero;fill:rgb(11.372549%,11.372549%,10.588235%);fill-opacity:1;" d="M 22.738281 11.824219 C 21.773438 11.523438 19.496094 11.550781 17.648438 11.632812 C 18.886719 10.105469 18.886719 8.628906 18.664062 7.933594 C 18.496094 7.414062 18.238281 6.101562 18.570312 5.589844 C 18.628906 5.488281 18.738281 5.417969 18.863281 5.40625 C 19.296875 5.347656 19.378906 4.90625 19.441406 4.554688 C 19.457031 4.425781 19.484375 4.300781 19.527344 4.179688 C 19.601562 4.050781 19.703125 3.9375 19.828125 3.847656 C 20.175781 3.578125 20.449219 3.226562 20.617188 2.824219 C 21.011719 1.878906 20.484375 1.410156 20.460938 1.390625 C 20.441406 1.375 20.417969 1.367188 20.390625 1.359375 L 20.355469 1.359375 C 19.953125 1.257812 19.519531 1.320312 19.164062 1.535156 C 18.996094 1.617188 18.789062 1.714844 18.480469 1.839844 C 17.816406 2.164062 17.015625 2.035156 16.496094 1.519531 C 15.378906 0.472656 14.59375 0.171875 11.515625 0.171875 C 8.4375 0.171875 7.664062 0.476562 6.558594 1.519531 C 6.035156 2.035156 5.234375 2.164062 4.574219 1.839844 C 4.339844 1.746094 4.113281 1.644531 3.886719 1.535156 C 3.53125 1.320312 3.101562 1.257812 2.695312 1.359375 L 2.660156 1.359375 C 2.636719 1.367188 2.613281 1.375 2.589844 1.390625 C 2.570312 1.410156 2.039062 1.875 2.433594 2.824219 C 2.605469 3.226562 2.875 3.578125 3.222656 3.847656 C 3.347656 3.9375 3.453125 4.050781 3.527344 4.179688 C 3.550781 4.304688 3.566406 4.433594 3.570312 4.5625 C 3.628906 4.917969 3.707031 5.359375 4.144531 5.414062 C 4.269531 5.425781 4.378906 5.496094 4.4375 5.601562 C 4.769531 6.113281 4.511719 7.421875 4.34375 7.945312 C 4.117188 8.636719 4.125 10.121094 5.363281 11.640625 C 3.511719 11.558594 1.234375 11.53125 0.269531 11.832031 C 0.167969 11.863281 0.117188 11.964844 0.148438 12.0625 C 0.179688 12.15625 0.285156 12.210938 0.382812 12.179688 C 1.394531 11.863281 4.101562 11.9375 5.632812 12.019531 L 5.695312 12.019531 L 5.855469 12.1875 C 3.953125 12.214844 2.660156 12.339844 2.011719 12.570312 C 1.949219 12.589844 1.902344 12.644531 1.890625 12.707031 C 1.875 12.773438 1.902344 12.839844 1.953125 12.882812 C 2.003906 12.921875 2.078125 12.933594 2.140625 12.910156 C 2.78125 12.683594 4.199219 12.558594 6.246094 12.542969 C 6.332031 12.617188 6.421875 12.6875 6.511719 12.757812 C 4.90625 12.84375 2.296875 13.050781 1.304688 13.484375 C 1.21875 13.527344 1.183594 13.628906 1.222656 13.71875 C 1.261719 13.804688 1.363281 13.847656 1.453125 13.816406 C 2.488281 13.371094 5.464844 13.175781 6.964844 13.101562 L 7.210938 13.277344 L 7.234375 13.292969 C 5.675781 13.441406 4.609375 13.632812 4.0625 13.863281 C 3.980469 13.910156 3.941406 14.011719 3.980469 14.097656 C 4.019531 14.183594 4.121094 14.226562 4.214844 14.195312 C 4.726562 13.976562 5.8125 13.785156 7.367188 13.644531 C 7.359375 14.089844 7.417969 14.539062 7.535156 14.96875 C 7.941406 16.015625 8.492188 16.273438 9.136719 16.324219 C 9.230469 16.496094 9.359375 16.644531 9.515625 16.761719 C 9.167969 17.070312 8.882812 17.4375 8.675781 17.84375 C 8.636719 17.9375 8.683594 18.042969 8.78125 18.078125 C 8.875 18.117188 8.984375 18.070312 9.023438 17.976562 C 9.089844 17.804688 9.289062 17.492188 9.835938 16.960938 C 9.996094 17.039062 10.164062 17.105469 10.332031 17.152344 C 10.214844 17.414062 10.136719 17.695312 10.105469 17.980469 C 10.101562 18.027344 10.121094 18.078125 10.152344 18.113281 C 10.1875 18.148438 10.230469 18.167969 10.28125 18.171875 C 10.378906 18.171875 10.460938 18.097656 10.46875 18 C 10.5 17.734375 10.578125 17.476562 10.691406 17.234375 C 11.230469 17.320312 11.777344 17.320312 12.316406 17.234375 C 12.429688 17.476562 12.507812 17.734375 12.539062 18 C 12.546875 18.097656 12.628906 18.171875 12.726562 18.171875 C 12.777344 18.167969 12.820312 18.148438 12.855469 18.113281 C 12.886719 18.078125 12.90625 18.027344 12.902344 17.980469 C 12.875 17.695312 12.800781 17.414062 12.683594 17.148438 C 12.851562 17.101562 13.019531 17.039062 13.179688 16.960938 C 13.726562 17.488281 13.921875 17.804688 13.992188 17.972656 C 14.03125 18.066406 14.136719 18.113281 14.234375 18.078125 C 14.332031 18.042969 14.378906 17.9375 14.339844 17.84375 C 14.132812 17.433594 13.847656 17.066406 13.5 16.761719 C 13.65625 16.640625 13.785156 16.492188 13.878906 16.324219 C 14.523438 16.269531 15.074219 16.015625 15.476562 14.96875 C 15.59375 14.539062 15.648438 14.09375 15.636719 13.652344 C 17.191406 13.792969 18.28125 13.980469 18.792969 14.203125 C 18.855469 14.234375 18.929688 14.230469 18.984375 14.191406 C 19.042969 14.152344 19.074219 14.085938 19.0625 14.019531 C 19.054688 13.949219 19.007812 13.894531 18.941406 13.871094 C 18.390625 13.628906 17.304688 13.441406 15.71875 13.296875 L 15.992188 13.105469 C 17.480469 13.179688 20.503906 13.375 21.550781 13.832031 C 21.644531 13.863281 21.746094 13.820312 21.785156 13.734375 C 21.824219 13.648438 21.785156 13.546875 21.699219 13.5 C 20.695312 13.070312 18.078125 12.867188 16.476562 12.773438 C 16.570312 12.707031 16.660156 12.632812 16.75 12.5625 C 18.804688 12.574219 20.222656 12.699219 20.867188 12.925781 C 20.960938 12.957031 21.0625 12.910156 21.097656 12.816406 C 21.132812 12.722656 21.085938 12.621094 20.992188 12.585938 C 20.347656 12.359375 19.054688 12.230469 17.148438 12.203125 L 17.308594 12.035156 L 17.371094 12.035156 C 18.894531 11.960938 21.609375 11.882812 22.625 12.195312 C 22.730469 12.226562 22.839844 12.167969 22.871094 12.066406 C 22.90625 11.964844 22.84375 11.855469 22.738281 11.824219 Z M 12.324219 16.398438 C 12.273438 16.3125 12.160156 16.285156 12.070312 16.332031 C 11.980469 16.382812 11.949219 16.496094 12.003906 16.582031 C 12.042969 16.648438 12.097656 16.75 12.160156 16.871094 C 11.730469 16.933594 11.296875 16.933594 10.867188 16.871094 C 10.953125 16.699219 11.023438 16.585938 11.023438 16.582031 C 11.078125 16.496094 11.046875 16.382812 10.957031 16.332031 C 10.867188 16.285156 10.753906 16.3125 10.703125 16.398438 C 10.703125 16.414062 10.597656 16.578125 10.488281 16.800781 C 10.148438 16.730469 9.839844 16.5625 9.597656 16.316406 L 10.203125 16.316406 C 10.746094 16.316406 11.246094 16.023438 11.503906 15.558594 C 11.765625 16.027344 12.269531 16.316406 12.816406 16.316406 L 13.417969 16.316406 C 13.179688 16.558594 12.871094 16.726562 12.53125 16.800781 C 12.417969 16.582031 12.324219 16.421875 12.316406 16.40625 Z M 16.566406 12.222656 L 16.546875 12.238281 C 16.335938 12.40625 16.105469 12.570312 15.882812 12.722656 L 15.6875 12.722656 C 15.71875 12.308594 15.800781 11.933594 15.953125 11.824219 C 16.035156 11.761719 16.050781 11.644531 15.984375 11.566406 C 15.921875 11.484375 15.800781 11.46875 15.71875 11.53125 C 15.472656 11.734375 15.363281 12.171875 15.316406 12.703125 L 15.164062 12.703125 C 15.113281 12.699219 15.066406 12.71875 15.03125 12.75 C 14.992188 12.785156 14.972656 12.832031 14.972656 12.878906 C 14.96875 12.980469 15.050781 13.0625 15.152344 13.066406 L 15.292969 13.066406 L 15.292969 13.246094 L 15.25 13.246094 C 15.148438 13.238281 15.058594 13.308594 15.046875 13.410156 C 15.039062 13.507812 15.113281 13.597656 15.214844 13.605469 L 15.269531 13.605469 C 15.277344 14.015625 15.230469 14.425781 15.128906 14.828125 C 14.78125 15.734375 14.359375 15.925781 13.753906 15.953125 L 12.816406 15.953125 C 12.203125 15.953125 11.703125 15.472656 11.691406 14.875 C 11.777344 14.796875 11.875 14.726562 11.980469 14.671875 C 12.226562 14.515625 12.59375 14.304688 12.457031 13.996094 C 12.410156 13.890625 12.445312 13.839844 12.871094 13.554688 L 13.027344 13.453125 C 13.210938 13.355469 13.332031 13.171875 13.347656 12.96875 C 13.335938 12.808594 13.25 12.667969 13.113281 12.582031 C 13.03125 12.53125 12.921875 12.554688 12.867188 12.632812 C 12.816406 12.714844 12.839844 12.820312 12.917969 12.875 C 12.9375 12.890625 12.980469 12.933594 12.984375 12.964844 C 12.988281 13 12.941406 13.066406 12.820312 13.148438 L 12.667969 13.25 C 12.261719 13.519531 11.945312 13.734375 12.121094 14.117188 C 12.101562 14.175781 11.902344 14.292969 11.792969 14.359375 C 11.695312 14.414062 11.601562 14.476562 11.511719 14.542969 C 11.421875 14.476562 11.328125 14.414062 11.230469 14.359375 C 11.113281 14.292969 11.003906 14.21875 10.902344 14.132812 C 11.078125 13.726562 10.757812 13.519531 10.355469 13.25 L 10.203125 13.144531 C 10.082031 13.0625 10.039062 12.996094 10.039062 12.964844 C 10.039062 12.929688 10.082031 12.886719 10.101562 12.875 C 10.183594 12.816406 10.203125 12.710938 10.152344 12.628906 C 10.097656 12.546875 9.988281 12.519531 9.902344 12.570312 C 9.765625 12.65625 9.679688 12.796875 9.667969 12.957031 C 9.683594 13.160156 9.804688 13.34375 9.988281 13.441406 L 10.144531 13.542969 C 10.574219 13.828125 10.605469 13.878906 10.558594 13.984375 C 10.421875 14.292969 10.777344 14.503906 11.035156 14.660156 C 11.136719 14.714844 11.230469 14.777344 11.324219 14.847656 C 11.320312 15.453125 10.816406 15.941406 10.195312 15.941406 L 9.808594 15.941406 C 8.886719 15.960938 8.324219 15.972656 7.882812 14.8125 C 7.78125 14.414062 7.734375 14 7.742188 13.589844 L 7.792969 13.589844 C 7.898438 13.582031 7.972656 13.492188 7.964844 13.394531 C 7.953125 13.292969 7.863281 13.21875 7.761719 13.226562 L 7.726562 13.226562 L 7.726562 13.046875 L 7.867188 13.046875 C 7.96875 13.046875 8.050781 12.96875 8.050781 12.867188 C 8.050781 12.765625 7.96875 12.683594 7.867188 12.683594 L 7.714844 12.683594 C 7.667969 12.15625 7.570312 11.71875 7.308594 11.515625 C 7.222656 11.445312 7.097656 11.460938 7.023438 11.546875 C 6.953125 11.628906 6.96875 11.753906 7.054688 11.824219 C 7.207031 11.941406 7.28125 12.308594 7.316406 12.722656 L 7.082031 12.722656 C 6.871094 12.566406 6.660156 12.40625 6.46875 12.238281 C 6.457031 12.222656 6.445312 12.214844 6.429688 12.203125 C 6.367188 12.148438 6.300781 12.09375 6.242188 12.035156 L 6.820312 12.074219 L 6.835938 12.074219 C 6.9375 12.078125 7.023438 12 7.027344 11.898438 C 7.03125 11.796875 6.953125 11.714844 6.847656 11.710938 C 6.847656 11.710938 6.460938 11.679688 5.855469 11.648438 C 4.507812 10.152344 4.472656 8.695312 4.6875 8.039062 C 4.6875 8.019531 5.265625 6.195312 4.742188 5.394531 C 4.625 5.203125 4.425781 5.078125 4.199219 5.046875 C 4.042969 5.027344 3.996094 4.804688 3.949219 4.492188 C 3.929688 4.339844 3.894531 4.191406 3.839844 4.046875 C 3.746094 3.859375 3.609375 3.699219 3.4375 3.574219 C 3.132812 3.34375 2.894531 3.035156 2.746094 2.6875 C 2.5 2.117188 2.691406 1.800781 2.773438 1.699219 C 2.953125 1.683594 3.136719 1.730469 3.285156 1.828125 C 3.304688 1.84375 5.152344 3.164062 5.960938 3.164062 L 6.046875 3.164062 C 5.304688 3.6875 4.867188 4.351562 4.867188 5.003906 C 4.867188 5.101562 4.949219 5.183594 5.054688 5.183594 C 5.15625 5.183594 5.238281 5.101562 5.238281 5.003906 C 5.238281 4.324219 5.882812 3.578125 6.882812 3.101562 C 7.273438 3.042969 7.648438 2.921875 7.996094 2.738281 C 8.054688 2.710938 8.09375 2.648438 8.09375 2.582031 C 8.09375 2.519531 8.058594 2.457031 8.003906 2.421875 C 7.945312 2.390625 7.871094 2.390625 7.8125 2.421875 C 7.230469 2.703125 6.585938 2.835938 5.9375 2.804688 C 5.628906 2.804688 5.035156 2.511719 4.484375 2.1875 C 5.269531 2.53125 6.1875 2.363281 6.792969 1.769531 C 7.785156 0.84375 8.402344 0.523438 11.503906 0.523438 C 14.605469 0.523438 15.222656 0.847656 16.214844 1.769531 C 16.59375 2.144531 17.109375 2.359375 17.648438 2.363281 C 17.9375 2.359375 18.226562 2.300781 18.5 2.199219 C 17.953125 2.519531 17.359375 2.808594 17.050781 2.808594 C 16.402344 2.839844 15.757812 2.707031 15.175781 2.429688 C 15.085938 2.382812 14.976562 2.414062 14.925781 2.5 C 14.878906 2.585938 14.910156 2.695312 14.996094 2.746094 C 15.34375 2.929688 15.722656 3.054688 16.113281 3.109375 C 17.105469 3.59375 17.757812 4.320312 17.757812 5.011719 C 17.757812 5.113281 17.839844 5.195312 17.945312 5.195312 C 18.046875 5.195312 18.128906 5.113281 18.128906 5.011719 C 18.128906 4.359375 17.691406 3.695312 16.949219 3.175781 L 17.058594 3.175781 C 17.871094 3.175781 19.71875 1.855469 19.734375 1.839844 C 19.882812 1.738281 20.066406 1.695312 20.246094 1.707031 C 20.328125 1.8125 20.503906 2.128906 20.269531 2.695312 C 20.125 3.046875 19.886719 3.351562 19.582031 3.585938 C 19.410156 3.707031 19.269531 3.871094 19.175781 4.054688 C 19.125 4.199219 19.089844 4.351562 19.066406 4.503906 C 19.011719 4.824219 18.964844 5.035156 18.820312 5.054688 C 18.589844 5.082031 18.382812 5.214844 18.261719 5.40625 C 17.738281 6.207031 18.3125 8.035156 18.320312 8.050781 C 18.535156 8.714844 18.496094 10.167969 17.148438 11.664062 C 16.554688 11.695312 16.15625 11.722656 16.15625 11.722656 C 16.054688 11.726562 15.972656 11.8125 15.976562 11.914062 C 15.980469 12.011719 16.066406 12.089844 16.171875 12.085938 L 16.1875 12.085938 L 16.765625 12.050781 C 16.710938 12.105469 16.632812 12.164062 16.566406 12.222656 Z M 16.566406 12.222656 "/>
<path style=" stroke:none;fill-rule:nonzero;fill:rgb(11.372549%,11.372549%,10.588235%);fill-opacity:1;" d="M 15.167969 6.144531 C 15.222656 6.144531 15.277344 6.117188 15.308594 6.074219 L 16.101562 5.125 C 16.144531 5.078125 16.160156 5.007812 16.136719 4.945312 C 16.113281 4.882812 16.054688 4.839844 15.988281 4.828125 C 15.921875 4.816406 15.855469 4.84375 15.8125 4.898438 L 15.023438 5.84375 C 14.976562 5.898438 14.96875 5.972656 15 6.035156 C 15.03125 6.101562 15.09375 6.140625 15.167969 6.140625 Z M 14.25 5.652344 C 14.269531 5.65625 14.292969 5.65625 14.316406 5.652344 C 14.394531 5.652344 14.460938 5.609375 14.488281 5.539062 L 14.839844 4.648438 C 14.875 4.554688 14.828125 4.449219 14.734375 4.414062 C 14.636719 4.375 14.527344 4.421875 14.492188 4.515625 L 14.140625 5.40625 C 14.121094 5.453125 14.121094 5.507812 14.140625 5.554688 C 14.160156 5.601562 14.199219 5.636719 14.25 5.652344 Z M 13.488281 5.578125 C 13.539062 5.574219 13.582031 5.550781 13.613281 5.515625 C 13.648438 5.480469 13.664062 5.429688 13.660156 5.382812 L 13.597656 4.609375 C 13.589844 4.511719 13.5 4.4375 13.394531 4.445312 C 13.292969 4.453125 13.214844 4.539062 13.226562 4.640625 L 13.285156 5.410156 C 13.289062 5.460938 13.3125 5.503906 13.351562 5.535156 C 13.390625 5.566406 13.4375 5.582031 13.488281 5.578125 Z M 13.488281 5.578125 "/>
<path style=" stroke:none;fill-rule:nonzero;fill:rgb(11.372549%,11.372549%,10.588235%);fill-opacity:1;" d="M 8.820312 13.964844 C 8.820312 14.101562 8.703125 14.21875 8.558594 14.21875 C 8.417969 14.21875 8.300781 14.101562 8.300781 13.964844 C 8.300781 13.824219 8.417969 13.707031 8.558594 13.707031 C 8.703125 13.707031 8.820312 13.824219 8.820312 13.964844 Z M 8.820312 13.964844 "/>
<path style=" stroke:none;fill-rule:nonzero;fill:rgb(11.372549%,11.372549%,10.588235%);fill-opacity:1;" d="M 8.90625 14.828125 C 8.90625 14.96875 8.789062 15.082031 8.648438 15.082031 C 8.503906 15.082031 8.386719 14.96875 8.386719 14.828125 C 8.386719 14.6875 8.503906 14.574219 8.648438 14.574219 C 8.789062 14.574219 8.90625 14.6875 8.90625 14.828125 Z M 8.90625 14.828125 "/>
<path style=" stroke:none;fill-rule:nonzero;fill:rgb(11.372549%,11.372549%,10.588235%);fill-opacity:1;" d="M 9.585938 15.394531 C 9.585938 15.535156 9.46875 15.648438 9.328125 15.648438 C 9.183594 15.648438 9.066406 15.535156 9.066406 15.394531 C 9.066406 15.253906 9.183594 15.140625 9.328125 15.140625 C 9.46875 15.140625 9.585938 15.253906 9.585938 15.394531 Z M 9.585938 15.394531 "/>
<path style=" stroke:none;fill-rule:nonzero;fill:rgb(11.372549%,11.372549%,10.588235%);fill-opacity:1;" d="M 9.816406 14.511719 C 9.816406 14.652344 9.699219 14.765625 9.554688 14.765625 C 9.410156 14.765625 9.292969 14.652344 9.292969 14.511719 C 9.292969 14.371094 9.410156 14.257812 9.554688 14.257812 C 9.699219 14.257812 9.816406 14.371094 9.816406 14.511719 Z M 9.816406 14.511719 "/>
<path style=" stroke:none;fill-rule:nonzero;fill:rgb(11.372549%,11.372549%,10.588235%);fill-opacity:1;" d="M 10.539062 14.957031 C 10.539062 15.097656 10.421875 15.210938 10.277344 15.210938 C 10.136719 15.210938 10.019531 15.097656 10.019531 14.957031 C 10.019531 14.816406 10.136719 14.703125 10.277344 14.703125 C 10.421875 14.703125 10.539062 14.816406 10.539062 14.957031 Z M 10.539062 14.957031 "/>
<path style=" stroke:none;fill-rule:nonzero;fill:rgb(11.372549%,11.372549%,10.588235%);fill-opacity:1;" d="M 14.707031 13.964844 C 14.707031 14.101562 14.589844 14.21875 14.449219 14.21875 C 14.304688 14.21875 14.1875 14.101562 14.1875 13.964844 C 14.1875 13.824219 14.304688 13.707031 14.449219 13.707031 C 14.589844 13.707031 14.707031 13.824219 14.707031 13.964844 Z M 14.707031 13.964844 "/>
<path style=" stroke:none;fill-rule:nonzero;fill:rgb(11.372549%,11.372549%,10.588235%);fill-opacity:1;" d="M 14.621094 14.828125 C 14.621094 14.96875 14.503906 15.082031 14.359375 15.082031 C 14.21875 15.082031 14.101562 14.96875 14.101562 14.828125 C 14.101562 14.6875 14.21875 14.574219 14.359375 14.574219 C 14.503906 14.574219 14.621094 14.6875 14.621094 14.828125 Z M 14.621094 14.828125 "/>
<path style=" stroke:none;fill-rule:nonzero;fill:rgb(11.372549%,11.372549%,10.588235%);fill-opacity:1;" d="M 13.941406 15.394531 C 13.941406 15.535156 13.824219 15.648438 13.679688 15.648438 C 13.539062 15.648438 13.421875 15.535156 13.421875 15.394531 C 13.421875 15.253906 13.539062 15.140625 13.679688 15.140625 C 13.824219 15.140625 13.941406 15.253906 13.941406 15.394531 Z M 13.941406 15.394531 "/>
<path style=" stroke:none;fill-rule:nonzero;fill:rgb(11.372549%,11.372549%,10.588235%);fill-opacity:1;" d="M 13.714844 14.511719 C 13.714844 14.652344 13.597656 14.765625 13.453125 14.765625 C 13.308594 14.765625 13.191406 14.652344 13.191406 14.511719 C 13.191406 14.371094 13.308594 14.257812 13.453125 14.257812 C 13.597656 14.257812 13.714844 14.371094 13.714844 14.511719 Z M 13.714844 14.511719 "/>
<path style=" stroke:none;fill-rule:nonzero;fill:rgb(11.372549%,11.372549%,10.588235%);fill-opacity:1;" d="M 12.988281 14.957031 C 12.988281 15.097656 12.871094 15.210938 12.730469 15.210938 C 12.585938 15.210938 12.46875 15.097656 12.46875 14.957031 C 12.46875 14.816406 12.585938 14.703125 12.730469 14.703125 C 12.871094 14.703125 12.988281 14.816406 12.988281 14.957031 Z M 12.988281 14.957031 "/>
<path style=" stroke:none;fill-rule:nonzero;fill:rgb(11.372549%,11.372549%,10.588235%);fill-opacity:1;" d="M 12.386719 9.765625 C 12.335938 9.761719 12.289062 9.777344 12.25 9.808594 C 12.214844 9.839844 12.191406 9.886719 12.1875 9.933594 C 12.117188 10.429688 11.875 10.890625 11.503906 11.238281 C 11.132812 10.890625 10.894531 10.429688 10.828125 9.929688 C 10.820312 9.832031 10.730469 9.753906 10.625 9.765625 C 10.523438 9.773438 10.445312 9.859375 10.453125 9.960938 C 10.542969 10.605469 10.875 11.195312 11.378906 11.621094 C 11.414062 11.644531 11.453125 11.660156 11.496094 11.660156 C 11.539062 11.660156 11.582031 11.644531 11.613281 11.621094 C 12.117188 11.195312 12.449219 10.605469 12.539062 9.960938 C 12.546875 9.867188 12.480469 9.785156 12.386719 9.765625 Z M 9.117188 10.417969 C 9.027344 10.375 8.917969 10.402344 8.867188 10.484375 C 8.816406 10.570312 8.753906 10.660156 8.6875 10.753906 C 8.355469 11.222656 7.855469 11.933594 8.558594 12.691406 C 8.632812 12.75 8.734375 12.746094 8.804688 12.683594 C 8.875 12.625 8.886719 12.523438 8.832031 12.449219 C 8.363281 11.953125 8.601562 11.523438 8.992188 10.972656 C 9.0625 10.867188 9.132812 10.769531 9.1875 10.679688 C 9.214844 10.636719 9.222656 10.582031 9.210938 10.535156 C 9.195312 10.484375 9.164062 10.441406 9.117188 10.417969 Z M 14.15625 10.484375 C 14.105469 10.398438 13.988281 10.367188 13.902344 10.417969 C 13.8125 10.46875 13.78125 10.578125 13.832031 10.667969 C 13.886719 10.757812 13.957031 10.855469 14.027344 10.960938 C 14.417969 11.511719 14.65625 11.941406 14.1875 12.4375 C 14.132812 12.480469 14.109375 12.554688 14.128906 12.621094 C 14.144531 12.691406 14.203125 12.742188 14.277344 12.753906 C 14.347656 12.765625 14.417969 12.734375 14.460938 12.679688 C 15.167969 11.929688 14.664062 11.226562 14.332031 10.742188 C 14.269531 10.660156 14.207031 10.570312 14.15625 10.484375 Z M 9.492188 12.792969 C 9.523438 12.695312 9.46875 12.59375 9.371094 12.5625 C 9.273438 12.53125 9.167969 12.585938 9.136719 12.679688 C 8.996094 13.128906 9.191406 13.613281 9.613281 13.847656 C 9.699219 13.898438 9.816406 13.867188 9.867188 13.78125 C 9.917969 13.695312 9.886719 13.582031 9.796875 13.53125 C 9.53125 13.386719 9.402344 13.078125 9.492188 12.792969 Z M 13.394531 13.839844 C 13.8125 13.609375 14.011719 13.121094 13.867188 12.671875 C 13.835938 12.578125 13.730469 12.523438 13.632812 12.554688 C 13.535156 12.585938 13.480469 12.6875 13.511719 12.785156 C 13.597656 13.066406 13.472656 13.371094 13.207031 13.519531 C 13.117188 13.566406 13.089844 13.679688 13.140625 13.765625 C 13.191406 13.851562 13.304688 13.882812 13.394531 13.832031 Z M 12.21875 12.828125 C 12.039062 13.03125 11.777344 13.144531 11.503906 13.144531 C 11.226562 13.144531 10.96875 13.03125 10.789062 12.828125 C 10.71875 12.75 10.597656 12.742188 10.519531 12.808594 C 10.441406 12.875 10.429688 12.992188 10.5 13.070312 C 10.75 13.355469 11.117188 13.519531 11.5 13.519531 C 11.886719 13.519531 12.253906 13.355469 12.503906 13.070312 C 12.570312 12.992188 12.5625 12.875 12.484375 12.808594 C 12.402344 12.742188 12.285156 12.75 12.214844 12.828125 Z M 6.671875 9.285156 C 6.613281 9.25 6.535156 9.246094 6.476562 9.28125 C 6.414062 9.3125 6.378906 9.378906 6.382812 9.445312 C 6.386719 9.515625 6.429688 9.574219 6.492188 9.605469 C 7.144531 9.953125 7.425781 10.472656 7.425781 10.660156 C 7.425781 10.757812 7.511719 10.839844 7.613281 10.839844 C 7.714844 10.839844 7.800781 10.757812 7.800781 10.660156 C 7.800781 10.285156 7.378906 9.667969 6.671875 9.285156 Z M 16.609375 9.359375 C 16.5625 9.273438 16.449219 9.242188 16.363281 9.285156 C 15.648438 9.667969 15.222656 10.285156 15.222656 10.660156 C 15.222656 10.761719 15.308594 10.84375 15.410156 10.84375 C 15.511719 10.84375 15.59375 10.761719 15.59375 10.660156 C 15.59375 10.476562 15.878906 9.953125 16.53125 9.605469 C 16.574219 9.585938 16.609375 9.546875 16.625 9.5 C 16.636719 9.453125 16.632812 9.402344 16.609375 9.359375 Z M 16.609375 9.359375 "/>
<path style=" stroke:none;fill-rule:nonzero;fill:rgb(0%,0%,0%);fill-opacity:1;" d="M 28.304688 13.792969 L 28.078125 13.238281 L 27.210938 13.238281 L 26.984375 13.792969 L 26.839844 13.792969 L 27.5625 12.027344 L 27.726562 12.027344 L 28.449219 13.792969 Z M 27.261719 13.117188 L 28.027344 13.117188 L 27.714844 12.347656 L 27.644531 12.160156 L 27.578125 12.339844 Z M 30.808594 12.929688 L 31.550781 12.929688 L 31.550781 13.792969 L 31.441406 13.792969 L 31.4375 13.484375 C 31.386719 13.59375 31.308594 13.675781 31.207031 13.734375 C 31.101562 13.792969 30.96875 13.820312 30.8125 13.820312 C 30.648438 13.820312 30.503906 13.78125 30.382812 13.710938 C 30.257812 13.636719 30.164062 13.53125 30.097656 13.390625 C 30.03125 13.253906 29.996094 13.09375 29.996094 12.910156 C 29.996094 12.726562 30.03125 12.566406 30.101562 12.429688 C 30.167969 12.289062 30.265625 12.183594 30.390625 12.109375 C 30.511719 12.035156 30.65625 12 30.820312 12 C 31.007812 12 31.15625 12.035156 31.273438 12.105469 C 31.390625 12.179688 31.480469 12.289062 31.539062 12.433594 L 31.410156 12.496094 C 31.371094 12.375 31.300781 12.28125 31.199219 12.21875 C 31.101562 12.152344 30.972656 12.121094 30.820312 12.121094 C 30.6875 12.121094 30.566406 12.152344 30.464844 12.21875 C 30.363281 12.28125 30.285156 12.371094 30.226562 12.492188 C 30.171875 12.609375 30.140625 12.75 30.140625 12.910156 C 30.140625 13.15625 30.203125 13.347656 30.320312 13.488281 C 30.441406 13.628906 30.609375 13.699219 30.820312 13.699219 C 30.953125 13.699219 31.0625 13.671875 31.15625 13.621094 C 31.246094 13.570312 31.3125 13.503906 31.355469 13.421875 C 31.402344 13.335938 31.421875 13.25 31.421875 13.152344 L 31.421875 13.054688 L 30.808594 13.054688 Z M 33.546875 13.671875 L 34.6875 13.671875 L 34.6875 13.792969 L 33.410156 13.792969 L 33.410156 12.027344 L 34.644531 12.027344 L 34.644531 12.148438 L 33.546875 12.148438 L 33.546875 12.832031 L 34.414062 12.832031 L 34.414062 12.957031 L 33.546875 12.957031 Z M 37.847656 12.027344 L 37.847656 13.792969 L 37.675781 13.792969 L 36.71875 12.40625 L 36.585938 12.171875 L 36.582031 12.171875 L 36.589844 12.394531 L 36.589844 13.792969 L 36.457031 13.792969 L 36.457031 12.027344 L 36.632812 12.027344 L 37.585938 13.410156 L 37.722656 13.648438 L 37.71875 13.425781 L 37.71875 12.027344 Z M 41.222656 13.347656 C 41.171875 13.496094 41.082031 13.613281 40.953125 13.695312 C 40.828125 13.777344 40.675781 13.820312 40.5 13.820312 C 40.332031 13.820312 40.1875 13.78125 40.0625 13.710938 C 39.9375 13.636719 39.84375 13.53125 39.773438 13.390625 C 39.707031 13.253906 39.675781 13.09375 39.675781 12.910156 C 39.675781 12.726562 39.707031 12.566406 39.773438 12.429688 C 39.84375 12.289062 39.9375 12.183594 40.0625 12.109375 C 40.1875 12.035156 40.332031 12 40.496094 12 C 40.855469 12 41.089844 12.144531 41.199219 12.4375 L 41.0625 12.496094 C 41.019531 12.371094 40.953125 12.277344 40.859375 12.214844 C 40.769531 12.152344 40.648438 12.121094 40.503906 12.121094 C 40.367188 12.121094 40.25 12.152344 40.144531 12.21875 C 40.042969 12.28125 39.960938 12.371094 39.90625 12.492188 C 39.847656 12.609375 39.820312 12.75 39.820312 12.910156 C 39.820312 13.070312 39.847656 13.210938 39.90625 13.328125 C 39.960938 13.445312 40.039062 13.539062 40.140625 13.601562 C 40.242188 13.664062 40.359375 13.699219 40.5 13.699219 C 40.644531 13.699219 40.769531 13.664062 40.871094 13.59375 C 40.972656 13.523438 41.042969 13.421875 41.082031 13.296875 Z M 43.132812 13.671875 L 44.277344 13.671875 L 44.277344 13.792969 L 42.996094 13.792969 L 42.996094 12.027344 L 44.230469 12.027344 L 44.230469 12.148438 L 43.132812 12.148438 L 43.132812 12.832031 L 44.003906 12.832031 L 44.003906 12.957031 L 43.132812 12.957031 Z M 48.84375 12.027344 C 49.132812 12.027344 49.355469 12.101562 49.511719 12.25 C 49.667969 12.398438 49.746094 12.613281 49.746094 12.898438 C 49.746094 13.1875 49.667969 13.40625 49.511719 13.5625 C 49.355469 13.714844 49.132812 13.792969 48.84375 13.792969 L 48.273438 13.792969 L 48.273438 12.027344 Z M 48.855469 13.671875 C 49.097656 13.671875 49.28125 13.605469 49.410156 13.46875 C 49.539062 13.335938 49.605469 13.144531 49.605469 12.898438 C 49.605469 12.65625 49.539062 12.472656 49.410156 12.34375 C 49.28125 12.214844 49.097656 12.148438 48.855469 12.148438 L 48.410156 12.148438 L 48.410156 13.671875 Z M 51.714844 13.671875 L 52.855469 13.671875 L 52.855469 13.792969 L 51.578125 13.792969 L 51.578125 12.027344 L 52.8125 12.027344 L 52.8125 12.148438 L 51.714844 12.148438 L 51.714844 12.832031 L 52.582031 12.832031 L 52.582031 12.957031 L 51.714844 12.957031 Z M 57.75 12.554688 L 57.386719 13.792969 L 57.214844 13.792969 L 56.652344 12.027344 L 56.800781 12.027344 L 57.304688 13.683594 L 57.777344 12.027344 L 57.9375 12.027344 L 58.410156 13.6875 L 58.917969 12.027344 L 59.058594 12.027344 L 58.492188 13.792969 L 58.324219 13.792969 L 57.957031 12.554688 L 57.855469 12.171875 L 57.851562 12.171875 Z M 60.933594 13.671875 L 62.078125 13.671875 L 62.078125 13.792969 L 60.796875 13.792969 L 60.796875 12.027344 L 62.035156 12.027344 L 62.035156 12.148438 L 60.933594 12.148438 L 60.933594 12.832031 L 61.800781 12.832031 L 61.800781 12.957031 L 60.933594 12.957031 Z M 63.84375 13.792969 L 63.84375 12.027344 L 64.484375 12.027344 C 64.683594 12.027344 64.832031 12.066406 64.929688 12.148438 C 65.023438 12.226562 65.074219 12.34375 65.074219 12.496094 C 65.074219 12.597656 65.042969 12.6875 64.988281 12.757812 C 64.929688 12.828125 64.847656 12.875 64.742188 12.898438 C 64.859375 12.917969 64.953125 12.964844 65.019531 13.039062 C 65.089844 13.113281 65.125 13.207031 65.125 13.316406 C 65.125 13.46875 65.070312 13.585938 64.957031 13.667969 C 64.847656 13.75 64.6875 13.792969 64.484375 13.792969 Z M 63.980469 12.839844 L 64.488281 12.839844 C 64.78125 12.839844 64.929688 12.726562 64.929688 12.496094 C 64.929688 12.265625 64.78125 12.148438 64.488281 12.148438 L 63.980469 12.148438 Z M 63.980469 13.671875 L 64.511719 13.671875 C 64.664062 13.671875 64.78125 13.640625 64.859375 13.578125 C 64.9375 13.519531 64.976562 13.429688 64.976562 13.316406 C 64.976562 13.203125 64.9375 13.113281 64.859375 13.054688 C 64.78125 12.992188 64.664062 12.964844 64.511719 12.964844 L 63.980469 12.964844 Z M 69.75 12.027344 C 70.039062 12.027344 70.261719 12.101562 70.417969 12.25 C 70.574219 12.398438 70.652344 12.613281 70.652344 12.898438 C 70.652344 13.1875 70.574219 13.40625 70.417969 13.5625 C 70.261719 13.714844 70.039062 13.792969 69.75 13.792969 L 69.179688 13.792969 L 69.179688 12.027344 Z M 69.761719 13.671875 C 70.003906 13.671875 70.1875 13.605469 70.316406 13.46875 C 70.445312 13.335938 70.507812 13.144531 70.507812 12.898438 C 70.507812 12.65625 70.445312 12.472656 70.316406 12.34375 C 70.1875 12.214844 70.003906 12.148438 69.761719 12.148438 L 69.316406 12.148438 L 69.316406 13.671875 Z M 72.617188 13.671875 L 73.761719 13.671875 L 73.761719 13.792969 L 72.480469 13.792969 L 72.480469 12.027344 L 73.71875 12.027344 L 73.71875 12.148438 L 72.617188 12.148438 L 72.617188 12.832031 L 73.488281 12.832031 L 73.488281 12.957031 L 72.617188 12.957031 Z M 76.089844 12 C 76.429688 12 76.660156 12.128906 76.773438 12.390625 L 76.65625 12.484375 C 76.609375 12.359375 76.542969 12.265625 76.449219 12.207031 C 76.359375 12.152344 76.242188 12.121094 76.09375 12.121094 C 75.988281 12.121094 75.894531 12.140625 75.816406 12.171875 C 75.738281 12.203125 75.679688 12.246094 75.636719 12.300781 C 75.59375 12.359375 75.574219 12.421875 75.574219 12.488281 C 75.574219 12.558594 75.59375 12.613281 75.628906 12.65625 C 75.660156 12.703125 75.71875 12.742188 75.804688 12.773438 C 75.886719 12.804688 76.003906 12.832031 76.148438 12.855469 C 76.382812 12.894531 76.550781 12.953125 76.648438 13.027344 C 76.746094 13.101562 76.796875 13.207031 76.796875 13.339844 C 76.796875 13.433594 76.769531 13.515625 76.710938 13.589844 C 76.65625 13.664062 76.578125 13.71875 76.472656 13.757812 C 76.371094 13.800781 76.25 13.820312 76.117188 13.820312 C 75.929688 13.820312 75.769531 13.78125 75.636719 13.710938 C 75.503906 13.636719 75.417969 13.53125 75.367188 13.398438 L 75.492188 13.304688 C 75.527344 13.433594 75.601562 13.53125 75.710938 13.597656 C 75.820312 13.664062 75.957031 13.699219 76.121094 13.699219 C 76.277344 13.699219 76.40625 13.667969 76.503906 13.605469 C 76.605469 13.542969 76.65625 13.457031 76.65625 13.347656 C 76.65625 13.25 76.613281 13.175781 76.53125 13.121094 C 76.453125 13.066406 76.308594 13.023438 76.109375 12.988281 C 75.941406 12.960938 75.804688 12.925781 75.707031 12.882812 C 75.609375 12.84375 75.539062 12.792969 75.496094 12.730469 C 75.453125 12.671875 75.429688 12.59375 75.429688 12.503906 C 75.429688 12.414062 75.457031 12.328125 75.511719 12.253906 C 75.5625 12.175781 75.640625 12.113281 75.742188 12.070312 C 75.839844 12.023438 75.957031 12 76.089844 12 Z M 78.734375 12.027344 L 78.734375 13.792969 L 78.597656 13.792969 L 78.597656 12.027344 Z M 81.375 12.929688 L 82.117188 12.929688 L 82.117188 13.792969 L 82.007812 13.792969 L 82.003906 13.484375 C 81.953125 13.59375 81.875 13.675781 81.769531 13.734375 C 81.664062 13.792969 81.535156 13.820312 81.378906 13.820312 C 81.214844 13.820312 81.070312 13.78125 80.949219 13.710938 C 80.824219 13.636719 80.730469 13.53125 80.664062 13.390625 C 80.597656 13.253906 80.5625 13.09375 80.5625 12.910156 C 80.5625 12.726562 80.597656 12.566406 80.664062 12.429688 C 80.734375 12.289062 80.832031 12.183594 80.957031 12.109375 C 81.078125 12.035156 81.222656 12 81.386719 12 C 81.574219 12 81.722656 12.035156 81.839844 12.105469 C 81.957031 12.179688 82.046875 12.289062 82.101562 12.433594 L 81.976562 12.496094 C 81.9375 12.375 81.867188 12.28125 81.765625 12.21875 C 81.664062 12.152344 81.539062 12.121094 81.386719 12.121094 C 81.253906 12.121094 81.132812 12.152344 81.03125 12.21875 C 80.929688 12.28125 80.851562 12.371094 80.792969 12.492188 C 80.738281 12.609375 80.707031 12.75 80.707031 12.910156 C 80.707031 13.15625 80.769531 13.347656 80.890625 13.488281 C 81.007812 13.628906 81.171875 13.699219 81.386719 13.699219 C 81.515625 13.699219 81.628906 13.671875 81.71875 13.621094 C 81.8125 13.570312 81.878906 13.503906 81.921875 13.421875 C 81.96875 13.335938 81.988281 13.25 81.988281 13.152344 L 81.988281 13.054688 L 81.375 13.054688 Z M 85.363281 12.027344 L 85.363281 13.792969 L 85.195312 13.792969 L 84.234375 12.40625 L 84.101562 12.171875 L 84.097656 12.171875 L 84.105469 12.394531 L 84.105469 13.792969 L 83.972656 13.792969 L 83.972656 12.027344 L 84.144531 12.027344 L 85.105469 13.410156 L 85.242188 13.648438 L 85.234375 13.425781 L 85.234375 12.027344 Z M 85.363281 12.027344 "/>
</g>
</svg>
